<?xml version="1.0" encoding="UTF-8" standalone="no"?><svg xmlns="http://www.w3.org/2000/svg" xmlns:xlink="http://www.w3.org/1999/xlink" contentStyleType="text/css" height="1078px" preserveAspectRatio="none" style="width:608px;height:1078px;background:#FFFFFF;" version="1.1" viewBox="0 0 608 1078" width="608px" zoomAndPan="magnify"><defs/><g><rect fill="none" height="27.6094" id="_title" style="stroke:none;stroke-width:1.0;" width="167" x="213.8113" y="5"/><text fill="#000000" font-family="sans-serif" font-size="14" font-weight="bold" lengthAdjust="spacing" textLength="157" x="218.8113" y="24.5332">Архитектура Матрицы</text><!--MD5=[430f0fc1ad7d8ac63cf33fa19785283a]
cluster Экосистема быстрых сообщений OpenSUSE--><g id="cluster_Экосистема быстрых сообщений OpenSUSE"><path d="M59.557,75.826 C77.5437,48.2136 103.5778,52.4951 117.2033,80.3579 C139.0798,45.235 163.0257,48.8654 184.3932,80.8675 C201.8556,52.0414 220.9405,48.7113 244.5806,73.9961 C265.3502,47.1312 285.2298,47.2314 302.6834,77.3757 C321.0111,49.8905 345.692,49.8066 365.6357,75.4613 C389.3065,44.6094 411.323,51.8275 429.8941,80.9274 C447.7155,56.9565 464.0172,53.9879 482.645,80.0776 C503.498,52.3648 530.1817,50.4133 550.5676,80.6253 C557.9482,79.8558 560.3406,85.3021 558.0953,91.3127 C588.9869,108.5034 583.1731,130.6117 558.0156,147.7233 C593.4137,168.8829 601.6225,193.728 564.1149,220.9594 C597.1196,241.0393 591.7211,272.2941 558.2856,286.4611 C589.0881,305.8478 592.0644,325.103 564.348,350.0674 C597.8586,372.811 592.1567,409.6236 557.1144,425.8213 C591.9051,439.7145 589.1412,471.1409 560.5136,488.4748 C590.9205,506.0359 595.1496,539.815 561.673,558.4348 C592.8082,575.9547 592.2995,597.0263 564.7867,617.631 C591.9577,638.8025 599.774,665.4284 563.5267,685.4212 C598.7873,704.3915 593.377,731.2629 565.2052,751.8363 C597.5304,781.0378 592.4724,804.3504 554.365,822.7916 C583.1156,840.3552 591.2165,863.9495 560.7748,887.3867 C587.3478,908.3507 589.8246,929.0564 558.1063,947.4297 C586.9545,974.5315 577.3505,1005.9638 543.5676,1020.6253 C549.3365,1018.7726 552.7264,1021.5165 552.396,1027.4984 C532.0872,1062.5204 508.909,1056.3486 486.0419,1030.2769 C469.0196,1057.9632 449.9046,1058.4531 428.4447,1035.3048 C407.7608,1064.9099 385.3388,1055.0085 370.2996,1029.3642 C355.9102,1069.0053 332.5705,1066.0614 304.6011,1043.7699 C285.6891,1071.1126 259.6401,1066.0383 243.4097,1040.6576 C216.0214,1062.9207 192.4784,1067.8965 177.7654,1027.3998 C162.288,1063.3219 135.9403,1062.2381 114.952,1032.6869 C85.9823,1061.2731 57.3331,1050.3471 46.5676,1013.6253 C53.0949,1012.259 55.4296,1016.1656 54.4838,1021.9261 C19.9852,1001.3841 25.6464,977.8464 52.4728,955.4492 C18.9824,940.4453 12.7522,911.4709 45.5137,889.4781 C6,869.9502 13.7261,837.1888 43.1566,815.4652 C14.2166,796.7827 17.144,774.6962 43.4514,756.2889 C6.6699,731.7946 6.1543,708.7952 41.6867,682.5698 C13.1913,661.4681 6.249,640.2453 38.1573,615.9439 C6.815,593.7441 8.7063,567.8852 40.0567,547.4232 C8.3215,532.7396 6.7155,501.3885 37.3072,484.0028 C13.4877,463.926 14.3653,440.5804 40.9836,423.572 C6.0517,398.2017 12.1037,372.5225 46.6861,352.7492 C16.1644,330.5622 21.5718,307.1996 52.1221,290.3314 C21.0543,270.4528 12.0349,243.9414 47.6871,219.8636 C21.5901,198.1074 14.9654,169.3084 53.2553,152.9067 C19.5189,128.5116 10.8698,97.7194 53.5676,73.6253 C56.5265,71.1269 58.6909,72.6288 59.557,75.826 " fill="none" style="stroke:#181818;stroke-width:1.0;"/><text fill="#000000" font-family="sans-serif" font-size="14" font-weight="bold" lengthAdjust="spacing" textLength="318" x="139.5676" y="93.1585">Экосистема быстрых сообщений OpenSUSE</text></g><!--MD5=[c3b270e7773b028a47e80d8bc5509fc6]
cluster IRC--><g id="cluster_IRC"><path d="M79.0676,693.6253 L104.0676,693.6253 A3.75,3.75 0 0 1 106.5676,696.1253 L113.5676,717.2346 L532.0676,717.2346 A2.5,2.5 0 0 1 534.5676,719.7346 L534.5676,1002.1253 A2.5,2.5 0 0 1 532.0676,1004.6253 L79.0676,1004.6253 A2.5,2.5 0 0 1 76.5676,1002.1253 L76.5676,696.1253 A2.5,2.5 0 0 1 79.0676,693.6253 " fill="none" style="stroke:#000000;stroke-width:1.5;"/><line style="stroke:#000000;stroke-width:1.5;" x1="76.5676" x2="113.5676" y1="717.2346" y2="717.2346"/><text fill="#000000" font-family="sans-serif" font-size="14" font-weight="bold" lengthAdjust="spacing" textLength="24" x="80.5676" y="710.1585">IRC</text></g><!--MD5=[9d00cbc0ec65e1499abb838fcb23987f]
cluster devirc--><g id="cluster_devirc"><polygon fill="none" points="275.5676,747.6253,285.5676,737.6253,510.5676,737.6253,510.5676,832.6253,500.5676,842.6253,275.5676,842.6253,275.5676,747.6253" style="stroke:#181818;stroke-width:1.0;"/><line style="stroke:#181818;stroke-width:1.0;" x1="500.5676" x2="510.5676" y1="747.6253" y2="737.6253"/><line style="stroke:#181818;stroke-width:1.0;" x1="275.5676" x2="500.5676" y1="747.6253" y2="747.6253"/><line style="stroke:#181818;stroke-width:1.0;" x1="500.5676" x2="500.5676" y1="747.6253" y2="842.6253"/><text fill="#000000" font-family="sans-serif" font-size="14" font-weight="bold" lengthAdjust="spacing" textLength="159" x="309.5676" y="765.1585">Станция разработчика</text></g><!--MD5=[516367d4c188c3a1d91fd474c722ca95]
cluster suppirc--><g id="cluster_suppirc"><polygon fill="none" points="172.5676,885.6253,182.5676,875.6253,328.5676,875.6253,328.5676,970.6253,318.5676,980.6253,172.5676,980.6253,172.5676,885.6253" style="stroke:#181818;stroke-width:1.0;"/><line style="stroke:#181818;stroke-width:1.0;" x1="318.5676" x2="328.5676" y1="885.6253" y2="875.6253"/><line style="stroke:#181818;stroke-width:1.0;" x1="172.5676" x2="318.5676" y1="885.6253" y2="885.6253"/><line style="stroke:#181818;stroke-width:1.0;" x1="318.5676" x2="318.5676" y1="885.6253" y2="980.6253"/><text fill="#000000" font-family="sans-serif" font-size="14" font-weight="bold" lengthAdjust="spacing" textLength="80" x="206.5676" y="903.1585">Поддержка</text></g><!--MD5=[a16b254137ef9deb4b4a4669ae43d579]
cluster Matrix--><g id="cluster_Matrix"><path d="M65.0676,470.6253 L110.0676,470.6253 A3.75,3.75 0 0 1 112.5676,473.1253 L119.5676,494.2346 L532.0676,494.2346 A2.5,2.5 0 0 1 534.5676,496.7346 L534.5676,641.1253 A2.5,2.5 0 0 1 532.0676,643.6253 L65.0676,643.6253 A2.5,2.5 0 0 1 62.5676,641.1253 L62.5676,473.1253 A2.5,2.5 0 0 1 65.0676,470.6253 " fill="none" style="stroke:#000000;stroke-width:1.5;"/><line style="stroke:#000000;stroke-width:1.5;" x1="62.5676" x2="119.5676" y1="494.2346" y2="494.2346"/><text fill="#000000" font-family="sans-serif" font-size="14" font-weight="bold" lengthAdjust="spacing" textLength="44" x="66.5676" y="487.1585">Matrix</text></g><!--MD5=[93cea362de0ddf1b0e4d008ae2a495b3]
cluster devmatrix--><g id="cluster_devmatrix"><polygon fill="none" points="275.5676,524.6253,285.5676,514.6253,510.5676,514.6253,510.5676,609.6253,500.5676,619.6253,275.5676,619.6253,275.5676,524.6253" style="stroke:#181818;stroke-width:1.0;"/><line style="stroke:#181818;stroke-width:1.0;" x1="500.5676" x2="510.5676" y1="524.6253" y2="514.6253"/><line style="stroke:#181818;stroke-width:1.0;" x1="275.5676" x2="500.5676" y1="524.6253" y2="524.6253"/><line style="stroke:#181818;stroke-width:1.0;" x1="500.5676" x2="500.5676" y1="524.6253" y2="619.6253"/><text fill="#000000" font-family="sans-serif" font-size="14" font-weight="bold" lengthAdjust="spacing" textLength="159" x="309.5676" y="542.1585">Станция разработчика</text></g><!--MD5=[58363190b694e0f5e3050b50fcc7c477]
cluster Telegramm--><g id="cluster_Telegramm"><path d="M65.0676,109.6253 L143.0676,109.6253 A3.75,3.75 0 0 1 145.5676,112.1253 L152.5676,133.2346 L526.0676,133.2346 A2.5,2.5 0 0 1 528.5676,135.7346 L528.5676,418.1253 A2.5,2.5 0 0 1 526.0676,420.6253 L65.0676,420.6253 A2.5,2.5 0 0 1 62.5676,418.1253 L62.5676,112.1253 A2.5,2.5 0 0 1 65.0676,109.6253 " fill="none" style="stroke:#000000;stroke-width:1.5;"/><line style="stroke:#000000;stroke-width:1.5;" x1="62.5676" x2="152.5676" y1="133.2346" y2="133.2346"/><text fill="#000000" font-family="sans-serif" font-size="14" font-weight="bold" lengthAdjust="spacing" textLength="77" x="66.5676" y="126.1585">Telegramm</text></g><!--MD5=[c54e50c75d3597e56c89e3a218f55480]
cluster supptg--><g id="cluster_supptg"><polygon fill="none" points="312.5676,301.6253,322.5676,291.6253,504.5676,291.6253,504.5676,386.6253,494.5676,396.6253,312.5676,396.6253,312.5676,301.6253" style="stroke:#181818;stroke-width:1.0;"/><line style="stroke:#181818;stroke-width:1.0;" x1="494.5676" x2="504.5676" y1="301.6253" y2="291.6253"/><line style="stroke:#181818;stroke-width:1.0;" x1="312.5676" x2="494.5676" y1="301.6253" y2="301.6253"/><line style="stroke:#181818;stroke-width:1.0;" x1="494.5676" x2="494.5676" y1="301.6253" y2="396.6253"/><text fill="#000000" font-family="sans-serif" font-size="14" font-weight="bold" lengthAdjust="spacing" textLength="80" x="364.5676" y="319.1585">Поддержка</text></g><!--MD5=[57045183531b692043d1176f6ef1d369]
cluster bottg--><g id="cluster_bottg"><polygon fill="none" points="188.5676,163.6253,198.5676,153.6253,380.5676,153.6253,380.5676,248.6253,370.5676,258.6253,188.5676,258.6253,188.5676,163.6253" style="stroke:#181818;stroke-width:1.0;"/><line style="stroke:#181818;stroke-width:1.0;" x1="370.5676" x2="380.5676" y1="163.6253" y2="153.6253"/><line style="stroke:#181818;stroke-width:1.0;" x1="188.5676" x2="370.5676" y1="163.6253" y2="163.6253"/><line style="stroke:#181818;stroke-width:1.0;" x1="370.5676" x2="370.5676" y1="163.6253" y2="258.6253"/><text fill="#000000" font-family="sans-serif" font-size="14" font-weight="bold" lengthAdjust="spacing" textLength="104" x="228.5676" y="181.1585">Telegramm bot</text></g><!--MD5=[1b328ac4fc0bcac3d4f8501ae488f31c]
entity IRC сервер--><g id="elem_IRC сервер"><rect fill="#F1F1F1" height="47.6094" rx="2.5" ry="2.5" style="stroke:#181818;stroke-width:0.5;" width="113" x="93.0676" y="778.6253"/><rect fill="#F1F1F1" height="10" style="stroke:#181818;stroke-width:0.5;" width="15" x="186.0676" y="783.6253"/><rect fill="#F1F1F1" height="2" style="stroke:#181818;stroke-width:0.5;" width="4" x="184.0676" y="785.6253"/><rect fill="#F1F1F1" height="2" style="stroke:#181818;stroke-width:0.5;" width="4" x="184.0676" y="789.6253"/><text fill="#000000" font-family="sans-serif" font-size="14" lengthAdjust="spacing" textLength="73" x="108.0676" y="813.1585">IRC сервер</text></g><!--MD5=[ab58e12c59fb9c7d4a695999e2c9af61]
entity irc--><g id="elem_irc"><ellipse cx="250.5676" cy="802.6253" fill="#F1F1F1" rx="8" ry="8" style="stroke:#181818;stroke-width:0.5;"/><text fill="#000000" font-family="sans-serif" font-size="14" lengthAdjust="spacing" textLength="15" x="243.0676" y="834.1585">irc</text></g><!--MD5=[1095224dc2be039758202fc56d89874e]
entity irssidev--><g id="elem_irssidev"><rect fill="#F1F1F1" height="47.6094" rx="2.5" ry="2.5" style="stroke:#181818;stroke-width:0.5;" width="112" x="294.5676" y="778.6253"/><rect fill="#F1F1F1" height="10" style="stroke:#181818;stroke-width:0.5;" width="15" x="386.5676" y="783.6253"/><rect fill="#F1F1F1" height="2" style="stroke:#181818;stroke-width:0.5;" width="4" x="384.5676" y="785.6253"/><rect fill="#F1F1F1" height="2" style="stroke:#181818;stroke-width:0.5;" width="4" x="384.5676" y="789.6253"/><text fill="#000000" font-family="sans-serif" font-size="14" lengthAdjust="spacing" textLength="72" x="309.5676" y="813.1585">IRC клиент</text></g><!--MD5=[d9bd56f2227a7eea016e911cd94ed14a]
entity irssisupp--><g id="elem_irssisupp"><rect fill="#F1F1F1" height="47.6094" rx="2.5" ry="2.5" style="stroke:#181818;stroke-width:0.5;" width="112" x="194.5676" y="916.6253"/><rect fill="#F1F1F1" height="10" style="stroke:#181818;stroke-width:0.5;" width="15" x="286.5676" y="921.6253"/><rect fill="#F1F1F1" height="2" style="stroke:#181818;stroke-width:0.5;" width="4" x="284.5676" y="923.6253"/><rect fill="#F1F1F1" height="2" style="stroke:#181818;stroke-width:0.5;" width="4" x="284.5676" y="927.6253"/><text fill="#000000" font-family="sans-serif" font-size="14" lengthAdjust="spacing" textLength="72" x="209.5676" y="951.1585">IRC клиент</text></g><!--MD5=[f055655932a5b545464d660937143c2d]
entity Matrix сервер--><g id="elem_Matrix сервер"><rect fill="#F1F1F1" height="47.6094" rx="2.5" ry="2.5" style="stroke:#181818;stroke-width:0.5;" width="127" x="79.0676" y="555.6253"/><rect fill="#F1F1F1" height="10" style="stroke:#181818;stroke-width:0.5;" width="15" x="186.0676" y="560.6253"/><rect fill="#F1F1F1" height="2" style="stroke:#181818;stroke-width:0.5;" width="4" x="184.0676" y="562.6253"/><rect fill="#F1F1F1" height="2" style="stroke:#181818;stroke-width:0.5;" width="4" x="184.0676" y="566.6253"/><text fill="#000000" font-family="sans-serif" font-size="14" lengthAdjust="spacing" textLength="87" x="94.0676" y="590.1585">Matrix сервер</text></g><!--MD5=[9324fd40d3f7986eeb4262ccbc5cc33e]
entity matrix--><g id="elem_matrix"><ellipse cx="250.5676" cy="579.6253" fill="#F1F1F1" rx="8" ry="8" style="stroke:#181818;stroke-width:0.5;"/><text fill="#000000" font-family="sans-serif" font-size="14" lengthAdjust="spacing" textLength="37" x="232.0676" y="611.1585">matrix</text></g><!--MD5=[c96c04a93a05ada89f3e495b4d5efb1c]
entity matrixdev--><g id="elem_matrixdev"><rect fill="#F1F1F1" height="47.6094" rx="2.5" ry="2.5" style="stroke:#181818;stroke-width:0.5;" width="126" x="294.5676" y="555.6253"/><rect fill="#F1F1F1" height="10" style="stroke:#181818;stroke-width:0.5;" width="15" x="400.5676" y="560.6253"/><rect fill="#F1F1F1" height="2" style="stroke:#181818;stroke-width:0.5;" width="4" x="398.5676" y="562.6253"/><rect fill="#F1F1F1" height="2" style="stroke:#181818;stroke-width:0.5;" width="4" x="398.5676" y="566.6253"/><text fill="#000000" font-family="sans-serif" font-size="14" lengthAdjust="spacing" textLength="86" x="309.5676" y="590.1585">Matrix клиент</text></g><!--MD5=[4739f69ad1af57d0c16a4623dbfdd27c]
entity Telegramm сервер--><g id="elem_Telegramm сервер"><rect fill="#F1F1F1" height="47.6094" rx="2.5" ry="2.5" style="stroke:#181818;stroke-width:0.5;" width="161" x="79.0676" y="332.6253"/><rect fill="#F1F1F1" height="10" style="stroke:#181818;stroke-width:0.5;" width="15" x="220.0676" y="337.6253"/><rect fill="#F1F1F1" height="2" style="stroke:#181818;stroke-width:0.5;" width="4" x="218.0676" y="339.6253"/><rect fill="#F1F1F1" height="2" style="stroke:#181818;stroke-width:0.5;" width="4" x="218.0676" y="343.6253"/><text fill="#000000" font-family="sans-serif" font-size="14" lengthAdjust="spacing" textLength="121" x="94.0676" y="367.1585">Telegramm сервер</text></g><!--MD5=[3a6b8c46e8abe8b8338eeff4c0971985]
entity tg--><g id="elem_tg"><ellipse cx="284.5676" cy="356.6253" fill="#F1F1F1" rx="8" ry="8" style="stroke:#181818;stroke-width:0.5;"/><text fill="#000000" font-family="sans-serif" font-size="14" lengthAdjust="spacing" textLength="12" x="278.5676" y="388.1585">tg</text></g><!--MD5=[fdd41f9ad004f9c6df6e7ae4bcfa2ca0]
entity tgsupp--><g id="elem_tgsupp"><rect fill="#F1F1F1" height="47.6094" rx="2.5" ry="2.5" style="stroke:#181818;stroke-width:0.5;" width="160" x="328.5676" y="332.6253"/><rect fill="#F1F1F1" height="10" style="stroke:#181818;stroke-width:0.5;" width="15" x="468.5676" y="337.6253"/><rect fill="#F1F1F1" height="2" style="stroke:#181818;stroke-width:0.5;" width="4" x="466.5676" y="339.6253"/><rect fill="#F1F1F1" height="2" style="stroke:#181818;stroke-width:0.5;" width="4" x="466.5676" y="343.6253"/><text fill="#000000" font-family="sans-serif" font-size="14" lengthAdjust="spacing" textLength="120" x="343.5676" y="367.1585">Telegramm клиент</text></g><!--MD5=[b29da150e3ca7b19278bc08c31658816]
entity tgbot--><g id="elem_tgbot"><rect fill="#F1F1F1" height="47.6094" rx="2.5" ry="2.5" style="stroke:#181818;stroke-width:0.5;" width="160" x="204.5676" y="194.6253"/><rect fill="#F1F1F1" height="10" style="stroke:#181818;stroke-width:0.5;" width="15" x="344.5676" y="199.6253"/><rect fill="#F1F1F1" height="2" style="stroke:#181818;stroke-width:0.5;" width="4" x="342.5676" y="201.6253"/><rect fill="#F1F1F1" height="2" style="stroke:#181818;stroke-width:0.5;" width="4" x="342.5676" y="205.6253"/><text fill="#000000" font-family="sans-serif" font-size="14" lengthAdjust="spacing" textLength="120" x="219.5676" y="229.1585">Telegramm клиент</text></g><!--MD5=[d1ad2e52a0bbc73e1b1f63d739f23cbc]
link IRC сервер to irc--><g id="link_IRC сервер_irc"><path d="M206.3776,802.6253 C217.9976,802.6253 229.6276,802.6253 241.2476,802.6253 " fill="none" id="IRC сервер-irc" style="stroke:#181818;stroke-width:1.0;"/></g><!--MD5=[416ea5ddd1573f864424dd586c7d91b4]
link irc to irssidev--><g id="link_irc_irssidev"><path d="M259.9476,802.6253 C271.3876,802.6253 282.8376,802.6253 294.2776,802.6253 " fill="none" id="irc-irssidev" style="stroke:#181818;stroke-width:1.0;"/></g><!--MD5=[9ec5a9ee0c7abacf1efa2ad88b0a5951]
link irc to irssisupp--><g id="link_irc_irssisupp"><path d="M250.5676,811.7253 C250.5676,831.9653 250.5676,885.3653 250.5676,916.3853 " fill="none" id="irc-irssisupp" style="stroke:#181818;stroke-width:1.0;"/></g><!--MD5=[3fb90c6a685f1cbfe42ea45cf1c5ef70]
link Matrix сервер to matrix--><g id="link_Matrix сервер_matrix"><path d="M206.2676,579.6253 C217.9176,579.6253 229.5776,579.6253 241.2276,579.6253 " fill="none" id="Matrix сервер-matrix" style="stroke:#181818;stroke-width:1.0;"/></g><!--MD5=[68f2d891a2de4f69f44f1d44d24fe4ee]
link matrix to matrixdev--><g id="link_matrix_matrixdev"><path d="M259.7676,579.6253 C271.3476,579.6253 282.9376,579.6253 294.5276,579.6253 " fill="none" id="matrix-matrixdev" style="stroke:#181818;stroke-width:1.0;"/></g><!--MD5=[e550c0fcddeeb2b049bb35680caefcd9]
link Telegramm сервер to tg--><g id="link_Telegramm сервер_tg"><path d="M240.1376,356.6253 C251.9376,356.6253 263.7376,356.6253 275.5376,356.6253 " fill="none" id="Telegramm сервер-tg" style="stroke:#181818;stroke-width:1.0;"/></g><!--MD5=[5d0688cd67a3056f55c0ceb8d0c1e6d2]
link tg to tgsupp--><g id="link_tg_tgsupp"><path d="M293.7676,356.6253 C305.2776,356.6253 316.7876,356.6253 328.2976,356.6253 " fill="none" id="tg-tgsupp" style="stroke:#181818;stroke-width:1.0;"/></g><!--MD5=[f928b6867f4ce6375fbfc74126756a0d]
link tgbot to tg--><g id="link_tgbot_tg"><path d="M284.5676,242.6953 C284.5676,273.6153 284.5676,326.9653 284.5676,347.3653 " fill="none" id="tgbot-tg" style="stroke:#181818;stroke-width:1.0;"/></g><!--MD5=[60d3a1426cc64acfc5f0c83da1617bd0]
link matrix to irc--><g id="link_matrix_irc"><path d="M250.5676,588.7553 C250.5676,623.3253 250.5676,758.0153 250.5676,793.1853 " fill="none" id="matrix-irc" style="stroke:#181818;stroke-width:1.0;"/><text fill="#000000" font-family="sans-serif" font-size="13" lengthAdjust="spacing" textLength="66" x="251.5676" y="674.1204">Мост c IRC</text></g><!--MD5=[814e375123fbcc1cfff15bda01436862]
link tg to matrix--><g id="link_tg_matrix"><path d="M283.3176,365.7553 C277.9976,400.3253 257.2776,535.0153 251.8676,570.1853 " fill="none" id="tg-matrix" style="stroke:#181818;stroke-width:1.0;"/><text fill="#000000" font-family="sans-serif" font-size="13" lengthAdjust="spacing" textLength="109" x="272.5676" y="451.1204">Мост c Telegramm</text></g><!--MD5=[3a3d168e183af8b3be1a8b9e8343e0fc]
@startuml matrix

title Архитектура Матрицы

cloud "Экосистема быстрых сообщений OpenSUSE" {
package  IRC {
    [IRC сервер] - irc
    node "Станция разработчика" as devirc {
        [IRC клиент] as irssidev
    }
    node "Поддержка" as suppirc {
        [IRC клиент] as irssisupp
    }
    irc - irssidev
    irc - - irssisupp
}

package  Matrix {
    [Matrix сервер] - matrix
    node "Станция разработчика" as devmatrix {
        [Matrix клиент] as matrixdev
    }
    matrix - matrixdev
}

package  Telegramm {
    [Telegramm сервер] - tg
    node "Поддержка" as supptg {
        [Telegramm клиент] as tgsupp
    }
    node "Telegramm bot" as bottg {
        [Telegramm клиент] as tgbot
    }
    tg - tgsupp
    tg -up- tgbot
}

irc -up- matrix : Мост c IRC
tg -down- matrix : Мост c Telegramm

}

@enduml

PlantUML version 1.2022.7(Mon Aug 22 20:01:30 MSK 2022)
(GPL source distribution)
Java Runtime: OpenJDK Runtime Environment
JVM: OpenJDK 64-Bit Server VM
Default Encoding: Cp1251
Language: ru
Country: RU
--></g></svg>