<?xml version="1.0" encoding="UTF-8" standalone="no"?><svg xmlns="http://www.w3.org/2000/svg" xmlns:xlink="http://www.w3.org/1999/xlink" contentScriptType="application/ecmascript" contentStyleType="text/css" height="381px" preserveAspectRatio="none" style="width:655px;height:381px;background:#FFFFFF;" version="1.1" viewBox="0 0 655 381" width="655px" zoomAndPan="magnify"><defs><filter height="300%" id="fyefqxqtd55yn" width="300%" x="-1" y="-1"><feGaussianBlur result="blurOut" stdDeviation="2.0"/><feColorMatrix in="blurOut" result="blurOut2" type="matrix" values="0 0 0 0 0 0 0 0 0 0 0 0 0 0 0 0 0 0 .4 0"/><feOffset dx="4.0" dy="4.0" in="blurOut2" result="blurOut3"/><feBlend in="SourceGraphic" in2="blurOut3" mode="normal"/></filter></defs><g><line style="stroke:#A80036;stroke-width:1.0;stroke-dasharray:5.0,5.0;" x1="69" x2="69" y1="74.25" y2="304.3594"/><line style="stroke:#A80036;stroke-width:1.0;stroke-dasharray:5.0,5.0;" x1="267.5" x2="267.5" y1="74.25" y2="304.3594"/><line style="stroke:#A80036;stroke-width:1.0;stroke-dasharray:5.0,5.0;" x1="339.5" x2="339.5" y1="74.25" y2="304.3594"/><line style="stroke:#A80036;stroke-width:1.0;stroke-dasharray:5.0,5.0;" x1="414.5" x2="414.5" y1="74.25" y2="304.3594"/><line style="stroke:#A80036;stroke-width:1.0;stroke-dasharray:5.0,5.0;" x1="501.5" x2="501.5" y1="74.25" y2="304.3594"/><line style="stroke:#A80036;stroke-width:1.0;stroke-dasharray:5.0,5.0;" x1="607.5" x2="607.5" y1="74.25" y2="304.3594"/><rect fill="#FEFECE" filter="url(#fyefqxqtd55yn)" height="64.25" style="stroke:#A80036;stroke-width:1.5;" width="124" x="5" y="5"/><text fill="#000000" font-family="sans-serif" font-size="18" font-weight="bold" lengthAdjust="spacing" textLength="78" x="28" y="30.6855">QuantML</text><line style="stroke:#A80036;stroke-width:1.0;" x1="5" x2="129" y1="39.6406" y2="39.6406"/><text fill="#000000" font-family="sans-serif" font-size="14" lengthAdjust="spacing" textLength="110" x="12" y="59.1738">Jupyter Notebook</text><rect fill="#FEFECE" filter="url(#fyefqxqtd55yn)" height="64.25" style="stroke:#A80036;stroke-width:1.5;" width="124" x="5" y="303.3594"/><text fill="#000000" font-family="sans-serif" font-size="18" font-weight="bold" lengthAdjust="spacing" textLength="78" x="28" y="329.0449">QuantML</text><line style="stroke:#A80036;stroke-width:1.0;" x1="5" x2="129" y1="338" y2="338"/><text fill="#000000" font-family="sans-serif" font-size="14" lengthAdjust="spacing" textLength="110" x="12" y="357.5332">Jupyter Notebook</text><text fill="#000000" font-family="sans-serif" font-size="14" lengthAdjust="spacing" textLength="47" x="241.5" y="71.1738">rics.csv</text><path d="M250,20.6406 C250,10.6406 268,10.6406 268,10.6406 C268,10.6406 286,10.6406 286,20.6406 L286,46.6406 C286,56.6406 268,56.6406 268,56.6406 C268,56.6406 250,56.6406 250,46.6406 L250,20.6406 " fill="#FEFECE" filter="url(#fyefqxqtd55yn)" style="stroke:#000000;stroke-width:1.5;"/><path d="M250,20.6406 C250,30.6406 268,30.6406 268,30.6406 C268,30.6406 286,30.6406 286,20.6406 " fill="none" style="stroke:#000000;stroke-width:1.5;"/><text fill="#000000" font-family="sans-serif" font-size="14" lengthAdjust="spacing" textLength="47" x="241.5" y="317.8926">rics.csv</text><path d="M250,330.9688 C250,320.9688 268,320.9688 268,320.9688 C268,320.9688 286,320.9688 286,330.9688 L286,356.9688 C286,366.9688 268,366.9688 268,366.9688 C268,366.9688 250,366.9688 250,356.9688 L250,330.9688 " fill="#FEFECE" filter="url(#fyefqxqtd55yn)" style="stroke:#000000;stroke-width:1.5;"/><path d="M250,330.9688 C250,340.9688 268,340.9688 268,340.9688 C268,340.9688 286,340.9688 286,330.9688 " fill="none" style="stroke:#000000;stroke-width:1.5;"/><text fill="#000000" font-family="sans-serif" font-size="14" lengthAdjust="spacing" textLength="65" x="304.5" y="71.1738">Обучение</text><ellipse cx="340" cy="40.6406" fill="#FEFECE" filter="url(#fyefqxqtd55yn)" rx="12" ry="12" style="stroke:#A80036;stroke-width:2.0;"/><polygon fill="#A80036" points="336,28.6406,342,23.6406,340,28.6406,342,33.6406,336,28.6406" style="stroke:#A80036;stroke-width:1.0;"/><text fill="#000000" font-family="sans-serif" font-size="14" lengthAdjust="spacing" textLength="65" x="304.5" y="317.8926">Обучение</text><ellipse cx="340" cy="336.9688" fill="#FEFECE" filter="url(#fyefqxqtd55yn)" rx="12" ry="12" style="stroke:#A80036;stroke-width:2.0;"/><polygon fill="#A80036" points="336,324.9688,342,319.9688,340,324.9688,342,329.9688,336,324.9688" style="stroke:#A80036;stroke-width:1.0;"/><text fill="#000000" font-family="sans-serif" font-size="14" lengthAdjust="spacing" textLength="52" x="385.5" y="71.1738">Прогноз</text><ellipse cx="414.5" cy="40.6406" fill="#FEFECE" filter="url(#fyefqxqtd55yn)" rx="12" ry="12" style="stroke:#A80036;stroke-width:2.0;"/><polygon fill="#A80036" points="410.5,28.6406,416.5,23.6406,414.5,28.6406,416.5,33.6406,410.5,28.6406" style="stroke:#A80036;stroke-width:1.0;"/><text fill="#000000" font-family="sans-serif" font-size="14" lengthAdjust="spacing" textLength="52" x="385.5" y="317.8926">Прогноз</text><ellipse cx="414.5" cy="336.9688" fill="#FEFECE" filter="url(#fyefqxqtd55yn)" rx="12" ry="12" style="stroke:#A80036;stroke-width:2.0;"/><polygon fill="#A80036" points="410.5,324.9688,416.5,319.9688,414.5,324.9688,416.5,329.9688,410.5,324.9688" style="stroke:#A80036;stroke-width:1.0;"/><rect fill="#FEFECE" filter="url(#fyefqxqtd55yn)" height="31.6094" style="stroke:#A80036;stroke-width:1.5;" width="89" x="457.5" y="33.6406"/><rect fill="#FEFECE" filter="url(#fyefqxqtd55yn)" height="31.6094" style="stroke:#A80036;stroke-width:1.5;" width="89" x="453.5" y="37.6406"/><text fill="#000000" font-family="sans-serif" font-size="14" lengthAdjust="spacing" textLength="75" x="460.5" y="59.1738">Расскладки</text><rect fill="#FEFECE" filter="url(#fyefqxqtd55yn)" height="31.6094" style="stroke:#A80036;stroke-width:1.5;" width="89" x="457.5" y="303.3594"/><rect fill="#FEFECE" filter="url(#fyefqxqtd55yn)" height="31.6094" style="stroke:#A80036;stroke-width:1.5;" width="89" x="453.5" y="307.3594"/><text fill="#000000" font-family="sans-serif" font-size="14" lengthAdjust="spacing" textLength="75" x="460.5" y="328.8926">Расскладки</text><text fill="#000000" font-family="sans-serif" font-size="14" lengthAdjust="spacing" textLength="88" x="560.5" y="71.1738">output_ml.xlsx</text><path d="M589.5,20.6406 C589.5,10.6406 607.5,10.6406 607.5,10.6406 C607.5,10.6406 625.5,10.6406 625.5,20.6406 L625.5,46.6406 C625.5,56.6406 607.5,56.6406 607.5,56.6406 C607.5,56.6406 589.5,56.6406 589.5,46.6406 L589.5,20.6406 " fill="#FEFECE" filter="url(#fyefqxqtd55yn)" style="stroke:#000000;stroke-width:1.5;"/><path d="M589.5,20.6406 C589.5,30.6406 607.5,30.6406 607.5,30.6406 C607.5,30.6406 625.5,30.6406 625.5,20.6406 " fill="none" style="stroke:#000000;stroke-width:1.5;"/><text fill="#000000" font-family="sans-serif" font-size="14" lengthAdjust="spacing" textLength="88" x="560.5" y="317.8926">output_ml.xlsx</text><path d="M589.5,330.9688 C589.5,320.9688 607.5,320.9688 607.5,320.9688 C607.5,320.9688 625.5,320.9688 625.5,330.9688 L625.5,356.9688 C625.5,366.9688 607.5,366.9688 607.5,366.9688 C607.5,366.9688 589.5,366.9688 589.5,356.9688 L589.5,330.9688 " fill="#FEFECE" filter="url(#fyefqxqtd55yn)" style="stroke:#000000;stroke-width:1.5;"/><path d="M589.5,330.9688 C589.5,340.9688 607.5,340.9688 607.5,340.9688 C607.5,340.9688 625.5,340.9688 625.5,330.9688 " fill="none" style="stroke:#000000;stroke-width:1.5;"/><polygon fill="#A80036" points="80,102.6016,70,106.6016,80,110.6016,76,106.6016" style="stroke:#A80036;stroke-width:1.0;"/><line style="stroke:#A80036;stroke-width:1.0;" x1="74" x2="267" y1="106.6016" y2="106.6016"/><text fill="#000000" font-family="sans-serif" font-size="13" lengthAdjust="spacing" textLength="175" x="86" y="101.7451">Читаем идентификатор акции</text><polygon fill="#A80036" points="328,132.9531,338,136.9531,328,140.9531,332,136.9531" style="stroke:#A80036;stroke-width:1.0;"/><line style="stroke:#A80036;stroke-width:1.0;" x1="69" x2="334" y1="136.9531" y2="136.9531"/><text fill="#000000" font-family="sans-serif" font-size="13" lengthAdjust="spacing" textLength="103" x="76" y="132.0967">Обучаем модель</text><polygon fill="#A80036" points="80,146.9531,70,150.9531,80,154.9531,76,150.9531" style="stroke:#A80036;stroke-width:1.0;"/><line style="stroke:#A80036;stroke-width:1.0;" x1="74" x2="339" y1="150.9531" y2="150.9531"/><polygon fill="#A80036" points="402.5,177.3047,412.5,181.3047,402.5,185.3047,406.5,181.3047" style="stroke:#A80036;stroke-width:1.0;"/><line style="stroke:#A80036;stroke-width:1.0;" x1="69" x2="408.5" y1="181.3047" y2="181.3047"/><text fill="#000000" font-family="sans-serif" font-size="13" lengthAdjust="spacing" textLength="85" x="76" y="176.4482">Прогнозируем</text><polygon fill="#A80036" points="80,191.3047,70,195.3047,80,199.3047,76,195.3047" style="stroke:#A80036;stroke-width:1.0;"/><line style="stroke:#A80036;stroke-width:1.0;" x1="74" x2="413.5" y1="195.3047" y2="195.3047"/><polygon fill="#A80036" points="490,221.6563,500,225.6563,490,229.6563,494,225.6563" style="stroke:#A80036;stroke-width:1.0;"/><line style="stroke:#A80036;stroke-width:1.0;" x1="69" x2="496" y1="225.6563" y2="225.6563"/><text fill="#000000" font-family="sans-serif" font-size="13" lengthAdjust="spacing" textLength="140" x="76" y="220.7998">Сохраняем расскладки</text><polygon fill="#A80036" points="80,252.0078,70,256.0078,80,260.0078,76,256.0078" style="stroke:#A80036;stroke-width:1.0;"/><line style="stroke:#A80036;stroke-width:1.0;" x1="74" x2="606.5" y1="256.0078" y2="256.0078"/><text fill="#000000" font-family="sans-serif" font-size="13" lengthAdjust="spacing" textLength="171" x="86" y="251.1514">Считываем всё содержимое</text><polygon fill="#A80036" points="595.5,282.3594,605.5,286.3594,595.5,290.3594,599.5,286.3594" style="stroke:#A80036;stroke-width:1.0;"/><line style="stroke:#A80036;stroke-width:1.0;" x1="69" x2="601.5" y1="286.3594" y2="286.3594"/><text fill="#000000" font-family="sans-serif" font-size="13" lengthAdjust="spacing" textLength="257" x="76" y="281.5029">Добавляем строку в главный файл вывода</text><!--MD5=[cb1a77a959333d241ba6b1c86f3c22d5]
@startuml proc

participant script [
    =QuantML
    - - - -
    Jupyter Notebook
]
database    "rics.csv"       as rics
control     "Обучение"       as learn
control     "Прогноз"        as pred
collections "Расскладки"     as csvs
database    "output_ml.xlsx" as output
script <- rics   : Читаем идентификатор акции
script -> learn  : Обучаем модель
script <- learn
script -> pred   : Прогнозируем
script <- pred
script -> csvs   : Сохраняем расскладки
script <- output : Считываем всё содержимое
script -> output : Добавляем строку в главный файл вывода

@enduml

PlantUML version 1.2022.0(Tue Jan 11 19:16:42 MSK 2022)
(GPL source distribution)
Java Runtime: Java(TM) SE Runtime Environment
JVM: Java HotSpot(TM) 64-Bit Server VM
Default Encoding: Cp1251
Language: ru
Country: RU
--></g></svg>