<?xml version="1.0" encoding="UTF-8" standalone="no"?><svg xmlns="http://www.w3.org/2000/svg" xmlns:xlink="http://www.w3.org/1999/xlink" contentScriptType="application/ecmascript" contentStyleType="text/css" height="693px" preserveAspectRatio="none" style="width:551px;height:693px;" version="1.1" viewBox="0 0 551 693" width="551px" zoomAndPan="magnify"><defs><filter height="300%" id="f1ltw915hs4a0v" width="300%" x="-1" y="-1"><feGaussianBlur result="blurOut" stdDeviation="2.0"/><feColorMatrix in="blurOut" result="blurOut2" type="matrix" values="0 0 0 0 0 0 0 0 0 0 0 0 0 0 0 0 0 0 .4 0"/><feOffset dx="4.0" dy="4.0" in="blurOut2" result="blurOut3"/><feBlend in="SourceGraphic" in2="blurOut3" mode="normal"/></filter></defs><g><!--MD5=[e4f170d383db359e829ab86fd29b4a68]
cluster GitLab--><path d="M55.8722,128.9138 C58.9397,121.2603 65.8378,121.1652 70.9422,126.5616 C74.8912,120.6908 80.7733,120.0974 84.773,126.5047 C88.0057,119.7047 93.4809,118.75 97.83,125.4227 C101.4535,119.48 106.0712,118.5401 110.4787,124.5963 C114.8142,118.3272 121.1428,118.6919 124.9806,125.1628 C128.1039,117.6959 133.8495,118.3569 138.543,123.47 C142.3495,116.7869 149.1025,115.4566 153.0677,123.3116 C157.2071,116.8162 163.8122,116.3741 167.072,124.1733 C170.8219,117.2342 177.845,116.1975 181.6695,124.0998 C185.9689,118.529 191.2273,119.2238 194.3066,125.411 C197.4842,118.6132 203.2393,119.0732 206.9182,124.9107 C212.6972,119.0395 218.8565,119.8774 222.1518,127.678 C225.4205,121.9547 230.5868,121.3864 235.0426,126.2296 C239.6294,120.8979 246.6047,121.6256 249.2381,128.5011 C255.4035,131.4833 254.8166,135.962 250.5016,140.0871 C257.0001,144.0124 257.914,148.2207 252.0428,153.561 C257.7077,157.8807 258.6788,162.2348 252.672,167.0969 C258.369,172.0305 256.4131,178.4025 249.8656,180.8347 C255.9565,185.1387 256.4074,191.9368 249.4016,195.8358 C256.0097,200.2632 257.1134,205.2604 249.7087,209.9917 C246.4136,216.0744 239.2588,216.6969 235.3436,210.7311 C231.4328,216.8999 227.1404,216.2159 222.6927,211.3464 C217.945,217.5385 212.32,216.182 208.992,209.7995 C205.1012,216.7367 200.1882,217.4668 194.284,212.2325 C190.3818,219.5054 185.3063,219.7726 180.5248,213.1 C176.5664,219.582 171.1548,220.8499 166.5583,213.7566 C163.067,219.7925 157.1786,222.1162 152.6351,214.8586 C148.4836,220.0637 143.297,220.4866 140.1672,213.7883 C135.5914,219.8619 129.652,219.1258 125.9376,212.7998 C121.88,219.4887 115.2545,218.1363 112.5005,211.4867 C106.9222,218.9384 101.1015,216.4558 97.0974,209.7715 C93.0974,216.2201 88.6612,214.4567 84.9741,209.4406 C81.5601,216.208 74.6341,216.15 70.9372,209.7421 C66.1884,216.7568 59.0896,217.1674 55.4568,208.6312 C47.9949,206.2675 47.4074,199.3713 52.375,194.3293 C46.7286,191.9114 45.0159,187.6076 49.7306,182.811 C41.9941,179.8058 41.0663,173.4903 47.5122,168.3147 C40.7169,162.5404 42.7108,156.862 50.2345,153.7672 C45.5806,147.8893 45.9684,142.297 54.4112,140.5613 C49.2755,136.1258 49.0864,131.8539 55.8722,128.9138 " fill="#FFFFFF" filter="url(#f1ltw915hs4a0v)" style="stroke:#000000;stroke-width:1.5;"/><text fill="#000000" font-family="sans-serif" font-size="14" font-weight="bold" lengthAdjust="spacing" textLength="50" x="126.6436" y="144.4951">GitLab</text><!--MD5=[42591781c74864aa6bd8b9830e23a81c]
cluster Docker--><path d="M38.8389,253.3326 C44.6792,236.9907 57.9996,236.0677 67.9966,249.2237 C77.9863,233.8612 90.4349,237.1784 98.8758,250.8698 C105.7084,234.0918 115.0746,232.7672 127.3466,245.6485 C140.1136,229.3304 152.7391,230.508 161.2532,249.7083 C168.435,237.4495 177.9017,236.8541 187.7189,246.5282 C195.0159,233.766 209.3857,230.2702 217.7292,245.4023 C226.1156,231.7932 236.9057,228.98 248.4206,241.7643 C260.2537,227.1981 270.5623,231.9212 277.7815,246.4244 C285.5445,233.7015 298.236,233.6445 305.9937,246.4303 C314.5529,231.4467 329.7925,230.6528 339.4102,245.234 C347.9836,232.8598 359.8671,236.1312 365.047,248.7192 C375.2419,233.3953 386.9801,234.903 397.8154,247.9803 C406.4482,235.8156 415.8082,236.8918 424.3131,248.1252 C439.0488,230.8285 452.9405,236.1993 460.1436,255.5 C463.2799,255.7916 463.4362,257.8437 462.1817,260.0865 C481.5699,269.8013 481.1083,282.3252 464.8901,294.8167 C489.7115,307.1428 489.4598,321.0916 469.6205,338.2786 C486.1638,352.5238 485.8265,365.7298 466.9157,377.532 C481.1422,395.775 475.162,413.1511 453.1436,419.5 C456.2016,420.2929 456.5817,421.8804 454.8192,424.3416 C448.0825,441.3681 433.1824,442.8575 424.0302,426.5743 C413.9817,436.901 404.3529,436.2215 397.6686,422.8345 C391.6295,436.5032 377.8099,437.6372 369.02,425.9414 C361.2774,441.2873 350.5967,440.4988 339.7751,429.3385 C329.6787,446.5011 316.7817,444.1639 307.6222,428.4229 C300.6159,442.1526 288.335,444.9836 277.2316,433.3277 C267.714,447.7457 258.3824,446.4325 248.3587,433.8693 C236.6116,446.7398 224.2713,446.2131 216.0543,429.9544 C210.0994,446.7797 195.628,445.8856 186.672,432.9138 C176.5814,443.0204 167.5568,443.6385 161.3705,428.9325 C149.7869,444.0849 135.0103,443.3006 127.4533,424.8662 C119.3911,436.3238 109.0362,436.918 102.1282,423.6824 C90.7055,440.1722 77.5357,440.2123 68.1946,421.6663 C52.6854,435.2111 36.9925,434.9057 30.1436,412.5 C32.5343,410.4624 34.4879,411.3726 35.085,414.289 C14.0797,404.1575 14.4528,389.609 31.6772,376.0689 C10.8181,365.9745 14.2415,351.2067 28.7551,338.3705 C8.5591,326.4135 7.8316,308.9388 27.3828,295.7035 C6,274.2195 7.9387,259.5234 37.1436,248.5 C39.6841,249.3259 40.3599,251.0818 38.8389,253.3326 " fill="#FFFFFF" filter="url(#f1ltw915hs4a0v)" style="stroke:#000000;stroke-width:1.5;"/><text fill="#000000" font-family="sans-serif" font-size="14" font-weight="bold" lengthAdjust="spacing" textLength="56" x="217.1436" y="266.4951">Docker</text><!--MD5=[7cfe38bcf78569c46b94d557edee6329]
cluster Хост--><path d="M200.8246,446.9709 C207.5228,433.3821 219.3497,434.3074 225.8636,447.1455 C229.0176,435.1215 238.1498,432.9661 246.1571,442.5976 C253.9747,432.4671 264.2436,434.3962 269.9895,444.9811 C277.245,433.8528 285.7395,432.4601 293.3925,444.5809 C298.6789,432.9519 309.8768,429.0814 318.1179,441.5491 C324.5384,431.4256 333.4357,434.9749 337.6309,443.8364 C343.6431,432.7453 353.3154,431.1163 361.2373,441.7625 C368.282,432.0174 379.9632,432.3419 385.248,443.7592 C391.062,431.434 401.213,430.9149 408.5264,442.2862 C417.1539,430.854 426.5862,430.8095 434.0777,443.49 C438.8512,435.3227 448.5644,432.5917 453.8358,442.9592 C462.2286,434.1891 473.0215,434.6422 478.2813,446.6459 C485.4622,435.9391 493.2607,434.3729 502.2245,444.6074 C513.1874,433.5804 523.5977,436.7807 529.1436,450.5 C530.4383,451.135 530.3467,452.0088 529.4036,452.8875 C540.8631,459.9339 543.0115,467.8506 531.8699,477.1906 C543.1146,483.8879 544.3665,496.3185 531.6916,502.8496 C542.9435,509.4124 539.4897,518.6547 530.5424,524.1266 C542.2055,536.7327 540.0073,550.7983 522.1436,555.5 C523.6129,554.0184 524.9036,554.3653 525.5604,556.3102 C518.4297,566.8955 510.8761,569.1308 502.4164,557.7077 C495.9586,570.4892 486.7497,570.6309 478.5695,559.4198 C472.407,572.0779 462.5674,573.555 454.5442,561.2076 C449.809,572.7107 438.6285,573.9487 431.7127,563.4728 C424.6973,574.2393 416.5897,574.154 408.2229,565.0722 C402.1806,577.3415 392.06,577.9997 384.9409,566.1099 C378.6937,577.5311 368.3251,577.4197 360.6771,567.719 C351.9304,576.209 342.6972,576.1517 337.8631,563.4975 C331.2579,574.8139 321.2239,572.2418 315.6586,562.4059 C310.7904,574.9443 300.3499,573.1095 293.708,564.2232 C284.5742,573.2613 275.1773,574.4174 269.2037,560.8045 C262.5618,571.7623 250.8708,571.589 245.4159,559.5754 C238.7783,571.1448 229.6936,568.2274 223.6206,558.9843 C208.1558,571.1732 197.016,568.1126 192.1436,548.5 C193.4958,547.3535 195.2204,547.5483 195.4617,549.6388 C183.2503,544.1047 178.7188,535.5889 190.2179,525.0071 C175.5002,520.7991 173.8208,512.5408 182.3678,500.7911 C175.0515,490.8284 175.5481,481.5584 188.917,477.3831 C176.2668,464.0445 179.022,446.9475 199.1436,443.5 C201.4468,443.4636 201.8185,445.4105 200.8246,446.9709 " fill="#FFFFFF" filter="url(#f1ltw915hs4a0v)" style="stroke:#000000;stroke-width:1.5;"/><text fill="#000000" font-family="sans-serif" font-size="14" font-weight="bold" lengthAdjust="spacing" textLength="37" x="342.1436" y="461.4951">Хост</text><!--MD5=[3653a7e9e132472627ebaa1d7d2959bb]
cluster /srv/gitlab-runner/config/--><rect fill="#FFFFFF" filter="url(#f1ltw915hs4a0v)" height="81" style="stroke:#000000;stroke-width:1.5;" width="213" x="316.1436" y="468.5"/><path d="M523.1436,468.5 L523.1436,477.7969 L513.1436,487.7969 L316.1436,487.7969 " fill="none" style="stroke:#000000;stroke-width:1.5;"/><text fill="#000000" font-family="sans-serif" font-size="14" font-weight="bold" lengthAdjust="spacing" textLength="197" x="319.1436" y="482.4951">/srv/gitlab-runner/config/</text><!--MD5=[6baf763fe8cc5c70ea3582c35d78e717]
cluster /var/run/--><rect fill="#FFFFFF" filter="url(#f1ltw915hs4a0v)" height="93" style="stroke:#000000;stroke-width:1.5;" width="116" x="192.1436" y="462.5"/><path d="M269.1436,462.5 L269.1436,471.7969 L259.1436,481.7969 L192.1436,481.7969 " fill="none" style="stroke:#000000;stroke-width:1.5;"/><text fill="#000000" font-family="sans-serif" font-size="14" font-weight="bold" lengthAdjust="spacing" textLength="67" x="195.1436" y="476.4951">/var/run/</text><!--MD5=[8ee998ff1267afb514db7db0cf7a572b]
entity proj_siegfrid--><path d="M55.1436,155.5 C55.1436,145.5 92.1436,145.5 92.1436,145.5 C92.1436,145.5 129.1436,145.5 129.1436,155.5 L129.1436,197.0938 C129.1436,207.0938 92.1436,207.0938 92.1436,207.0938 C92.1436,207.0938 55.1436,207.0938 55.1436,197.0938 L55.1436,155.5 " fill="#FEFECE" filter="url(#f1ltw915hs4a0v)" style="stroke:#000000;stroke-width:1.5;"/><path d="M55.1436,155.5 C55.1436,165.5 92.1436,165.5 92.1436,165.5 C92.1436,165.5 129.1436,165.5 129.1436,155.5 " fill="none" style="stroke:#000000;stroke-width:1.5;"/><text fill="#000000" font-family="sans-serif" font-size="14" lengthAdjust="spacing" textLength="54" x="65.1436" y="182.4951">Проект</text><text fill="#000000" font-family="sans-serif" font-size="14" lengthAdjust="spacing" textLength="51" x="65.1436" y="198.792">Siegfrid</text><!--MD5=[8bbcb5b81b72cd8f14e0c1d5f28a8b6a]
entity proj_kriemhild--><path d="M164.6436,155.5 C164.6436,145.5 206.1436,145.5 206.1436,145.5 C206.1436,145.5 247.6436,145.5 247.6436,155.5 L247.6436,197.0938 C247.6436,207.0938 206.1436,207.0938 206.1436,207.0938 C206.1436,207.0938 164.6436,207.0938 164.6436,197.0938 L164.6436,155.5 " fill="#FEFECE" filter="url(#f1ltw915hs4a0v)" style="stroke:#000000;stroke-width:1.5;"/><path d="M164.6436,155.5 C164.6436,165.5 206.1436,165.5 206.1436,165.5 C206.1436,165.5 247.6436,165.5 247.6436,155.5 " fill="none" style="stroke:#000000;stroke-width:1.5;"/><text fill="#000000" font-family="sans-serif" font-size="14" lengthAdjust="spacing" textLength="54" x="174.6436" y="182.4951">Проект</text><text fill="#000000" font-family="sans-serif" font-size="14" lengthAdjust="spacing" textLength="63" x="174.6436" y="198.792">Kriemhild</text><!--MD5=[7c0f197cad09c4d86c8b8989e1030b9e]
entity docker--><rect fill="#FEFECE" filter="url(#f1ltw915hs4a0v)" height="46.2969" style="stroke:#A80036;stroke-width:1.5;" width="170" x="132.1436" y="373.5"/><rect fill="#FEFECE" height="10" style="stroke:#A80036;stroke-width:1.5;" width="15" x="282.1436" y="378.5"/><rect fill="#FEFECE" height="2" style="stroke:#A80036;stroke-width:1.5;" width="4" x="280.1436" y="380.5"/><rect fill="#FEFECE" height="2" style="stroke:#A80036;stroke-width:1.5;" width="4" x="280.1436" y="384.5"/><text fill="#000000" font-family="sans-serif" font-size="14" lengthAdjust="spacing" textLength="130" x="147.1436" y="406.4951">Процесс Docker-а</text><!--MD5=[a9fdbcd7a6cbc124882de1da71397e01]
entity runner--><rect fill="#FEFECE" filter="url(#f1ltw915hs4a0v)" height="46.2969" style="stroke:#A80036;stroke-width:1.5;" width="157" x="302.6436" y="267.5"/><rect fill="#FEFECE" height="10" style="stroke:#A80036;stroke-width:1.5;" width="15" x="439.6436" y="272.5"/><rect fill="#FEFECE" height="2" style="stroke:#A80036;stroke-width:1.5;" width="4" x="437.6436" y="274.5"/><rect fill="#FEFECE" height="2" style="stroke:#A80036;stroke-width:1.5;" width="4" x="437.6436" y="278.5"/><text fill="#000000" font-family="sans-serif" font-size="14" lengthAdjust="spacing" textLength="117" x="317.6436" y="300.4951">Главный Runner</text><!--MD5=[dca3684dbb0ca8772e1deb551f2317a8]
entity ex_siegfrid--><rect fill="#FEFECE" filter="url(#f1ltw915hs4a0v)" height="46.2969" style="stroke:#A80036;stroke-width:1.5;" width="101" x="30.6436" y="267.5"/><rect fill="#FEFECE" height="10" style="stroke:#A80036;stroke-width:1.5;" width="15" x="111.6436" y="272.5"/><rect fill="#FEFECE" height="2" style="stroke:#A80036;stroke-width:1.5;" width="4" x="109.6436" y="274.5"/><rect fill="#FEFECE" height="2" style="stroke:#A80036;stroke-width:1.5;" width="4" x="109.6436" y="278.5"/><text fill="#000000" font-family="sans-serif" font-size="14" lengthAdjust="spacing" textLength="61" x="45.6436" y="300.4951">Executor</text><!--MD5=[022720a0fa049219a6899ff55c4c621e]
entity ex_kriemhild--><rect fill="#FEFECE" filter="url(#f1ltw915hs4a0v)" height="46.2969" style="stroke:#A80036;stroke-width:1.5;" width="101" x="166.6436" y="267.5"/><rect fill="#FEFECE" height="10" style="stroke:#A80036;stroke-width:1.5;" width="15" x="247.6436" y="272.5"/><rect fill="#FEFECE" height="2" style="stroke:#A80036;stroke-width:1.5;" width="4" x="245.6436" y="274.5"/><rect fill="#FEFECE" height="2" style="stroke:#A80036;stroke-width:1.5;" width="4" x="245.6436" y="278.5"/><text fill="#000000" font-family="sans-serif" font-size="14" lengthAdjust="spacing" textLength="61" x="181.6436" y="300.4951">Executor</text><!--MD5=[caf660ac2a54b55a5c31b5515889e628]
entity config--><rect fill="#FEFECE" filter="url(#f1ltw915hs4a0v)" height="46.2969" style="stroke:#A80036;stroke-width:1.5;" width="116" x="368.1436" y="495.5"/><rect fill="#FEFECE" height="10" style="stroke:#A80036;stroke-width:1.5;" width="15" x="464.1436" y="500.5"/><rect fill="#FEFECE" height="2" style="stroke:#A80036;stroke-width:1.5;" width="4" x="462.1436" y="502.5"/><rect fill="#FEFECE" height="2" style="stroke:#A80036;stroke-width:1.5;" width="4" x="462.1436" y="506.5"/><text fill="#000000" font-family="sans-serif" font-size="14" lengthAdjust="spacing" textLength="76" x="383.1436" y="528.4951">config.toml</text><!--MD5=[40825d28f37406a278684fcfc58ceb1f]
entity sock--><ellipse cx="250.1436" cy="518.5" fill="#FEFECE" filter="url(#f1ltw915hs4a0v)" rx="8" ry="8" style="stroke:#A80036;stroke-width:1.5;"/><text fill="#000000" font-family="sans-serif" font-size="14" lengthAdjust="spacing" textLength="85" x="207.6436" y="548.4951">docker.sock</text><!--MD5=[df19d650caf9be3acec081ea74f2e43a]
entity devops--><ellipse cx="426.1436" cy="617" fill="#FEFECE" filter="url(#f1ltw915hs4a0v)" rx="8" ry="8" style="stroke:#A80036;stroke-width:1.5;"/><path d="M426.1436,625 L426.1436,652 M413.1436,633 L439.1436,633 M426.1436,652 L413.1436,667 M426.1436,652 L439.1436,667 " fill="none" filter="url(#f1ltw915hs4a0v)" style="stroke:#A80036;stroke-width:1.5;"/><text fill="#000000" font-family="sans-serif" font-size="14" lengthAdjust="spacing" textLength="55" x="398.6436" y="685.4951">DevOps</text><!--MD5=[1d5a0736fde3f380643b83e2634319ef]
entity siegfrid--><ellipse cx="92.1436" cy="14" fill="#FEFECE" filter="url(#f1ltw915hs4a0v)" rx="8" ry="8" style="stroke:#A80036;stroke-width:1.5;"/><path d="M92.1436,22 L92.1436,49 M79.1436,30 L105.1436,30 M92.1436,49 L79.1436,64 M92.1436,49 L105.1436,64 " fill="none" filter="url(#f1ltw915hs4a0v)" style="stroke:#A80036;stroke-width:1.5;"/><text fill="#000000" font-family="sans-serif" font-size="14" lengthAdjust="spacing" textLength="66" x="59.1436" y="82.4951">Зигфрид</text><!--MD5=[261c0964902e2f3fa1b7cf6cde9bed3e]
entity kriemhild--><ellipse cx="206.1436" cy="14" fill="#FEFECE" filter="url(#f1ltw915hs4a0v)" rx="8" ry="8" style="stroke:#A80036;stroke-width:1.5;"/><path d="M206.1436,22 L206.1436,49 M193.1436,30 L219.1436,30 M206.1436,49 L193.1436,64 M206.1436,49 L219.1436,64 " fill="none" filter="url(#f1ltw915hs4a0v)" style="stroke:#A80036;stroke-width:1.5;"/><text fill="#000000" font-family="sans-serif" font-size="14" lengthAdjust="spacing" textLength="89" x="161.6436" y="82.4951">Кримхильда</text><!--MD5=[25bbbfabc977563f9daa7bb47fe52d86]
link runner to sock--><path d="M375.2247,313.509 C366.8357,342.612 349.1897,393.0745 320.1436,427.5 C316.0101,432.399 312.7255,431.0175 308.1436,435.5 C286.3201,456.8504 267.4134,487.4318 257.5098,504.8933 " fill="none" id="runner-to-sock" style="stroke:#A80036;stroke-width:1.0;"/><polygon fill="#A80036" points="254.9603,509.4518,262.8446,503.5495,257.401,505.088,255.8625,499.6444,254.9603,509.4518" style="stroke:#A80036;stroke-width:1.0;"/><!--MD5=[cff7879036eed7634165b47fb05e1382]
link runner to config--><path d="M385.7061,313.6166 C394.0109,355.6945 411.5678,444.6493 420.5676,490.2485 " fill="none" id="runner-to-config" style="stroke:#A80036;stroke-width:1.0;"/><polygon fill="#A80036" points="421.569,495.3222,423.7504,485.718,420.6007,490.4169,415.9018,487.2672,421.569,495.3222" style="stroke:#A80036;stroke-width:1.0;"/><!--MD5=[506e0bcd2b11857b703ef6d29c4eeca2]
reverse link docker to sock--><path d="M224.7604,424.6589 C232.1149,451.8483 242.8241,491.44 247.637,509.2332 " fill="none" id="docker-backto-sock" style="stroke:#A80036;stroke-width:1.0;"/><polygon fill="#A80036" points="223.4283,419.7344,221.9171,429.4666,224.7338,424.5609,229.6395,427.3777,223.4283,419.7344" style="stroke:#A80036;stroke-width:1.0;"/><!--MD5=[a212cb681d4c2f9f1483e89ea9183888]
reverse link ex_siegfrid to docker--><path d="M114.7201,316.6699 C136.9312,333.9815 165.7973,356.4801 187.2216,373.1784 " fill="none" id="ex_siegfrid-backto-docker" style="stroke:#A80036;stroke-width:1.0;"/><polygon fill="#A80036" points="110.6536,313.5004,115.2932,322.188,114.5973,316.5741,120.2111,315.8781,110.6536,313.5004" style="stroke:#A80036;stroke-width:1.0;"/><!--MD5=[af0a7847d42ba96bb34a546c77ee642b]
reverse link ex_kriemhild to docker--><path d="M217.1436,318.6305 C217.1436,335.6538 217.1436,357.1037 217.1436,373.1784 " fill="none" id="ex_kriemhild-backto-docker" style="stroke:#A80036;stroke-width:1.0;"/><polygon fill="#A80036" points="217.1436,313.5004,213.1436,322.5004,217.1436,318.5004,221.1436,322.5004,217.1436,313.5004" style="stroke:#A80036;stroke-width:1.0;"/><!--MD5=[0eefde835cab8060051ef8fb31bcef63]
reverse link runner to docker--><path d="M341.3045,316.2496 C314.3381,333.6792 279.0151,356.5099 252.9425,373.3617 " fill="none" id="runner-backto-docker" style="stroke:#A80036;stroke-width:1.0;"/><polygon fill="#A80036" points="345.558,313.5004,335.8281,315.0268,341.3589,316.2147,340.171,321.7454,345.558,313.5004" style="stroke:#A80036;stroke-width:1.0;"/><!--MD5=[e2e0bdedbcee986e8f539bbba96dd6d3]
reverse link proj_siegfrid to ex_siegfrid--><path d="M88.6148,213.0708 C86.8963,230.8815 84.8817,251.7593 83.3779,267.3446 " fill="none" id="proj_siegfrid-backto-ex_siegfrid" style="stroke:#A80036;stroke-width:1.0;"/><polygon fill="#A80036" points="89.1378,207.651,84.2918,216.2252,88.6575,212.6279,92.2548,216.9936,89.1378,207.651" style="stroke:#A80036;stroke-width:1.0;"/><!--MD5=[cdedd06e62826c886f9f88c37b4c2220]
reverse link proj_kriemhild to ex_kriemhild--><path d="M209.6724,213.0708 C211.3909,230.8815 213.4055,251.7593 214.9093,267.3446 " fill="none" id="proj_kriemhild-backto-ex_kriemhild" style="stroke:#A80036;stroke-width:1.0;"/><polygon fill="#A80036" points="209.1494,207.651,206.0324,216.9936,209.6297,212.6279,213.9954,216.2252,209.1494,207.651" style="stroke:#A80036;stroke-width:1.0;"/><!--MD5=[e41e4a7ed99b9da0563ebccf5befcc69]
link siegfrid to proj_siegfrid--><path d="M92.1436,85.5273 C92.1436,102.8983 92.1436,123.0378 92.1436,139.9454 " fill="none" id="siegfrid-to-proj_siegfrid" style="stroke:#A80036;stroke-width:1.0;"/><polygon fill="#A80036" points="92.1436,145.0821,96.1436,136.0821,92.1436,140.0821,88.1436,136.0821,92.1436,145.0821" style="stroke:#A80036;stroke-width:1.0;"/><!--MD5=[f7686e935687ae6f8d78a305c683f2dc]
link kriemhild to proj_kriemhild--><path d="M206.1436,85.5273 C206.1436,102.8983 206.1436,123.0378 206.1436,139.9454 " fill="none" id="kriemhild-to-proj_kriemhild" style="stroke:#A80036;stroke-width:1.0;"/><polygon fill="#A80036" points="206.1436,145.0821,210.1436,136.0821,206.1436,140.0821,202.1436,136.0821,206.1436,145.0821" style="stroke:#A80036;stroke-width:1.0;"/><!--MD5=[c02a592ea6d1fc3d660198d102fcf2ea]
reverse link config to devops--><path d="M426.1436,546.9579 C426.1436,564.6374 426.1436,587.6487 426.1436,607.2448 " fill="none" id="config-backto-devops" style="stroke:#A80036;stroke-width:1.0;"/><polygon fill="#A80036" points="426.1436,541.652,422.1436,550.652,426.1436,546.652,430.1436,550.652,426.1436,541.652" style="stroke:#A80036;stroke-width:1.0;"/><!--MD5=[fb7c9098be8248927b27a06e48b4e2f2]
@startuml arch

actor "DevOps" as devops
actor "Зигфрид" as siegfrid
actor "Кримхильда" as kriemhild

cloud "GitLab" {
    database "Проект\nSiegfrid" as proj_siegfrid
    database "Проект\nKriemhild" as proj_kriemhild
}

cloud "Docker" {
    component "Процесс Docker-а" as docker
    component "Главный Runner" as runner
    component "Executor" as ex_siegfrid
    component "Executor" as ex_kriemhild
}

cloud "Хост" {
    frame "/srv/gitlab-runner/config/" {
        component "config.toml" as config
    }
    frame "/var/run/" {
        () "docker.sock" as sock
    }
}

runner -down-> sock
runner -down-> config
sock -up-> docker
docker -up-> ex_siegfrid
docker -up-> ex_kriemhild
docker -up-> runner
ex_siegfrid -up-> proj_siegfrid
ex_kriemhild -up-> proj_kriemhild
siegfrid -down-> proj_siegfrid
kriemhild -down-> proj_kriemhild
devops -up-> config

@enduml

PlantUML version 1.2021.00(Sun Jan 10 13:25:05 MSK 2021)
(GPL source distribution)
Java Runtime: OpenJDK Runtime Environment
JVM: OpenJDK 64-Bit Server VM
Default Encoding: UTF-8
Language: en
Country: US
--></g></svg>