<?xml version="1.0" encoding="UTF-8" standalone="no"?><svg xmlns="http://www.w3.org/2000/svg" xmlns:xlink="http://www.w3.org/1999/xlink" contentStyleType="text/css" height="687px" preserveAspectRatio="none" style="width:805px;height:687px;background:#FFFFFF;" version="1.1" viewBox="0 0 805 687" width="805px" zoomAndPan="magnify"><defs/><g><rect fill="none" height="27.6094" id="_title" style="stroke:none;stroke-width:1.0;" width="178" x="306.9423" y="5"/><text fill="#000000" font-family="sans-serif" font-size="14" font-weight="bold" lengthAdjust="spacing" textLength="168" x="311.9423" y="24.5332">Валидация модулей ТС</text><!--MD5=[f94a88e1ea09208aa92c607904552d3d]
cluster ci--><g id="cluster_ci"><path d="M363.615,292.3911 C368.7282,278.5374 380.2201,279.5519 388.4992,289.0119 C399.8065,275.864 409.6867,275.5282 418.1691,291.8554 C423.3886,273.7591 437.7007,273.0227 448.8848,285.9499 C457.5079,270.4562 467.1823,270.0141 477.1106,284.7304 C486.6547,271.2482 496.7044,268.3177 507.1917,283.7492 C517.0504,269.0199 525.7739,272.0058 534.9737,284.4236 C544.152,267.1803 556.2569,270.021 566.8859,282.8861 C573.2449,267.2193 588.0298,268.1474 596.8058,280.2854 C606.22,265.6614 620.3373,267.4264 625.9816,283.8303 C633.8574,270.2431 646.099,272.103 651.7173,285.9482 C663.2507,274.4244 674.3534,273.4193 682.7905,289.4411 C689.3984,272.4996 703.4856,272.0776 713.0008,286.6544 C723.7607,273.6248 735.4701,276.1258 740.1596,292.2997 C751.9328,275.6666 767.1024,279.4383 774,297.1094 C774.7992,296.4306 775.4813,296.735 775.7213,297.6963 C789.623,305.2701 792.5811,318.4475 777.6904,327.8986 C790.6394,335.7219 792.2784,349.3709 777.0187,356.5324 C792.3274,367.3664 791.1359,379.7966 776.0279,389.7226 C791.6515,396.5029 794.735,409.0562 780.955,420.5378 C795.3495,427.5602 796.0249,441.8405 782.0626,449.9314 C796.2128,457.4475 795.574,468.3403 782.0276,475.819 C798.8846,488.3515 794.0926,501.0734 778.6087,510.4094 C792.1849,518.2277 789.3929,530.6397 777.2629,537.165 C791.062,545.0289 793.5175,558.2577 778.7171,567.4929 C792.622,583.0772 786.6432,597.2183 767,601.1094 C767.7203,601.0507 768.2737,601.4587 767.8882,602.2563 C761.9328,618.1223 752.5548,620.4735 741.0548,607.397 C732.3217,621.6875 721.5862,624.3443 711.4574,608.7807 C702.9258,622.8767 693.7013,620.9296 684.8026,609.1591 C674.3104,625.399 663.1088,627.4968 650.9784,610.8437 C644.2399,626.3515 633.8673,626.6625 624.0112,613.8079 C616.9113,626.5711 605.7622,626.5824 597.3952,615.205 C591.0184,632.0777 577.4121,633.2592 567.4206,618.6462 C558.3945,634.9072 543.2015,631.7522 536.6965,616.2107 C524.0388,631.2169 513.4083,626.8372 505.4117,611.418 C497.9622,622.7219 488.2291,626.1127 478.8886,613.5165 C469.0781,626.9726 456.1316,623.9215 451.841,608.3697 C439.3412,622.6669 426.596,623.37 417.4285,604.8729 C409.4221,617.3644 396.8459,620.3622 388.5917,605.1306 C371.4478,617.2202 359.9053,612.693 352,594.1094 C354.9407,592.9851 356.7969,594.9492 355.9546,597.8376 C339.7797,590.4367 338.4719,580.6385 351.5811,568.8235 C340.2773,557.792 338.4915,547.6596 354.9648,539.8748 C339.2381,531.4585 337.3579,519.6417 351.1506,507.7233 C334.9028,500.8363 337.855,486.874 349.6736,478.5653 C335.7449,468.2384 336.4945,453.0386 353.1844,446.014 C338.4075,439.7827 340.8222,428.9629 350.7278,420.3674 C335.0326,411.481 339.2043,397.3794 352.3278,390.012 C338.308,381.0262 337.5471,369.4418 351.8272,359.9841 C338.1999,347.5092 337.2552,336.6104 355.8067,328.1592 C338.3755,315.3202 338.0216,299.7249 359,290.1094 C361.7067,288.4123 363.341,289.1678 363.615,292.3911 " fill="none" style="stroke:#181818;stroke-width:1.0;"/><text fill="#000000" font-family="sans-serif" font-size="14" font-weight="bold" lengthAdjust="spacing" textLength="63" x="531.5" y="309.6426">GitLab CI</text></g><!--MD5=[ea4dc0d5e1431e2e43a8c15a38542bdc]
entity dfmxml--><g id="elem_dfmxml"><ellipse cx="525" cy="334.1094" fill="#F1F1F1" rx="12" ry="12" style="stroke:#181818;stroke-width:0.5;"/><polygon fill="#181818" points="521,322.1094,527,317.1094,525,322.1094,527,327.1094,521,322.1094" style="stroke:#181818;stroke-width:1.0;"/><text fill="#000000" font-family="sans-serif" font-size="14" lengthAdjust="spacing" textLength="81" x="484.5" y="364.6426">Трансляция</text></g><!--MD5=[6bce54b2baba0fa8b44af4150ea5b26e]
entity validation--><g id="elem_validation"><ellipse cx="594" cy="559.1094" fill="#F1F1F1" rx="12" ry="12" style="stroke:#181818;stroke-width:0.5;"/><polygon fill="#181818" points="590,547.1094,596,542.1094,594,547.1094,596,552.1094,590,547.1094" style="stroke:#181818;stroke-width:1.0;"/><text fill="#000000" font-family="sans-serif" font-size="14" lengthAdjust="spacing" textLength="74" x="557" y="589.6426">Валидация</text></g><!--MD5=[760541b746d4b82d55ac7afacf45db14]
entity xslt--><g id="elem_xslt"><path d="M600.5,326.6094 L600.5,359.2188 A2.5,2.5 0 0 0 603,361.7188 L763,361.7188 A2.5,2.5 0 0 0 765.5,359.2188 L765.5,334.1094 L755.5,324.1094 L603,324.1094 A2.5,2.5 0 0 0 600.5,326.6094 " fill="#F1F1F1" style="stroke:#181818;stroke-width:0.5;"/><path d="M755.5,324.1094 L755.5,331.6094 A2.5,2.5 0 0 0 758,334.1094 L765.5,334.1094 " fill="#F1F1F1" style="stroke:#181818;stroke-width:0.5;"/><text fill="#000000" font-family="sans-serif" font-size="14" lengthAdjust="spacing" textLength="145" x="610.5" y="348.6426">Файл конверсии XSLT</text></g><!--MD5=[f7a1fb8d7dc40e3a02c0b3f29d6abae3]
entity xsd--><g id="elem_xsd"><path d="M360,551.6094 L360,584.2188 A2.5,2.5 0 0 0 362.5,586.7188 L519.5,586.7188 A2.5,2.5 0 0 0 522,584.2188 L522,559.1094 L512,549.1094 L362.5,549.1094 A2.5,2.5 0 0 0 360,551.6094 " fill="#F1F1F1" style="stroke:#181818;stroke-width:0.5;"/><path d="M512,549.1094 L512,556.6094 A2.5,2.5 0 0 0 514.5,559.1094 L522,559.1094 " fill="#F1F1F1" style="stroke:#181818;stroke-width:0.5;"/><text fill="#000000" font-family="sans-serif" font-size="14" lengthAdjust="spacing" textLength="142" x="370" y="573.6426">Файл валидации XSD</text></g><!--MD5=[c5493808d7af5d7019ee34710d57aef1]
entity dfm--><g id="elem_dfm"><rect fill="#F1F1F1" height="23.6094" rx="2.5" ry="2.5" style="stroke:#181818;stroke-width:0.5;" width="89" x="360.5" y="331.1094"/><text fill="#000000" font-family="sans-serif" font-size="14" lengthAdjust="spacing" textLength="69" x="370.5" y="348.6426">Файл DFM</text></g><!--MD5=[69faa7ec202dfabe15aa1561f53126bf]
entity xml--><g id="elem_xml"><rect fill="#F1F1F1" height="40.6094" rx="2.5" ry="2.5" style="stroke:#181818;stroke-width:0.5;" width="96" x="511" y="442.1094"/><polygon fill="#F1F1F1" points="590,447.1094,590,461.1094,602,461.1094,602,453.1094,596,447.1094,590,447.1094" style="stroke:#181818;stroke-width:0.5;"/><line style="stroke:#181818;stroke-width:0.5;" x1="596" x2="596" y1="447.1094" y2="453.1094"/><line style="stroke:#181818;stroke-width:0.5;" x1="602" x2="596" y1="453.1094" y2="453.1094"/><text fill="#000000" font-family="sans-serif" font-size="14" lengthAdjust="spacing" textLength="66" x="521" y="469.6426">Файл XML</text></g><!--MD5=[9507427243004660732f4a3ad2a314fc]
entity tsprog--><g id="elem_tsprog"><ellipse cx="78" cy="312.6094" fill="#F1F1F1" rx="8" ry="8" style="stroke:#181818;stroke-width:0.5;"/><path d="M78,320.6094 L78,347.6094 M65,328.6094 L91,328.6094 M78,347.6094 L65,362.6094 M78,347.6094 L91,362.6094 " fill="none" style="stroke:#181818;stroke-width:0.5;"/><text fill="#000000" font-family="sans-serif" font-size="14" lengthAdjust="spacing" textLength="144" x="6" y="378.6426">Разработчик системы</text></g><!--MD5=[7b31999533123f0eb6ad393854868593]
entity gradleprog--><g id="elem_gradleprog"><ellipse cx="683" cy="52.6094" fill="#F1F1F1" rx="8" ry="8" style="stroke:#181818;stroke-width:0.5;"/><path d="M683,60.6094 L683,87.6094 M670,68.6094 L696,68.6094 M683,87.6094 L670,102.6094 M683,87.6094 L696,102.6094 " fill="none" style="stroke:#181818;stroke-width:0.5;"/><text fill="#000000" font-family="sans-serif" font-size="14" lengthAdjust="spacing" textLength="189" x="588.5" y="118.6426">Разработчик плагина сборки</text></g><!--MD5=[384f80ccc722d85addd66067e6ef3104]
entity commit--><g id="elem_commit"><rect fill="#F1F1F1" height="33.6094" rx="2.5" ry="2.5" style="stroke:#181818;stroke-width:0.5;" width="136" x="189" y="328.1094"/><rect fill="#F1F1F1" height="33.6094" rx="2.5" ry="2.5" style="stroke:#181818;stroke-width:0.5;" width="136" x="185" y="324.1094"/><text fill="#000000" font-family="sans-serif" font-size="14" lengthAdjust="spacing" textLength="120" x="193" y="346.6426">Коммит в систему</text></g><!--MD5=[d214511de4cf5d41d91ac0d6a862c909]
entity mail--><g id="elem_mail"><path d="M272.5,653.1094 L513.5,653.1094 C518.5,653.1094 518.5,666.9141 518.5,666.9141 C518.5,666.9141 518.5,680.7188 513.5,680.7188 L272.5,680.7188 C267.5,680.7188 267.5,666.9141 267.5,666.9141 C267.5,666.9141 267.5,653.1094 272.5,653.1094 " fill="#F1F1F1" style="stroke:#181818;stroke-width:0.5;"/><path d="M513.5,653.1094 C508.5,653.1094 508.5,666.9141 508.5,666.9141 C508.5,680.7188 513.5,680.7188 513.5,680.7188 " fill="none" style="stroke:#181818;stroke-width:0.5;"/><text fill="#000000" font-family="sans-serif" font-size="14" lengthAdjust="spacing" textLength="231" x="272.5" y="672.6426">Оповещение о результатах сборки</text></g><!--MD5=[a676a9789d60baa8bbe0ae21878b8afe]
link tsprog to commit--><g id="link_tsprog_commit"><path d="M150.25,343.1094 C160.01,343.1094 169.76,343.1094 179.52,343.1094 " fill="none" id="tsprog-to-commit" style="stroke:#181818;stroke-width:1.0;"/><polygon fill="#181818" points="184.62,343.1094,175.62,339.1094,179.62,343.1094,175.62,347.1094,184.62,343.1094" style="stroke:#181818;stroke-width:1.0;"/></g><!--MD5=[6f17182f13c75fc67111f09462eac755]
link tsprog to xsd--><g id="link_tsprog_xsd"><path d="M139.99,382.1894 C217.11,429.5694 346.06,508.7794 407.05,546.2494 " fill="none" id="tsprog-to-xsd" style="stroke:#181818;stroke-width:1.0;stroke-dasharray:7.0,7.0;"/><polygon fill="#181818" points="411.32,548.8794,405.7439,540.7611,407.0593,546.2629,401.5575,547.5783,411.32,548.8794" style="stroke:#181818;stroke-width:1.0;"/></g><!--MD5=[c353e95e4fdfc0e8bb0da3f4cdabb396]
link gradleprog to xslt--><g id="link_gradleprog_xslt"><path d="M683,122.1794 C683,176.3294 683,273.9594 683,318.6394 " fill="none" id="gradleprog-to-xslt" style="stroke:#181818;stroke-width:1.0;stroke-dasharray:7.0,7.0;"/><polygon fill="#181818" points="683,323.8194,687,314.8194,683,318.8194,679,314.8194,683,323.8194" style="stroke:#181818;stroke-width:1.0;"/></g><!--MD5=[48334b3f79a5e9fb495abf8495e5e4c8]
link commit to dfm--><g id="link_commit_dfm"><path d="M325.02,343.1094 C335.04,343.1094 345.06,343.1094 355.08,343.1094 " fill="none" id="commit-to-dfm" style="stroke:#181818;stroke-width:1.0;"/><polygon fill="#181818" points="360.32,343.1094,351.32,339.1094,355.32,343.1094,351.32,347.1094,360.32,343.1094" style="stroke:#181818;stroke-width:1.0;"/></g><!--MD5=[8fce0e2a92080f13f4b7891c9c392069]
link dfm to dfmxml--><g id="link_dfm_dfmxml"><path d="M449.53,343.1094 C459.41,343.1094 469.28,343.1094 479.15,343.1094 " fill="none" id="dfm-to-dfmxml" style="stroke:#181818;stroke-width:1.0;"/><polygon fill="#181818" points="484.32,343.1094,475.32,339.1094,479.32,343.1094,475.32,347.1094,484.32,343.1094" style="stroke:#181818;stroke-width:1.0;"/></g><!--MD5=[d70f5ea10bf5044de2a66b1b6858dc64]
link dfmxml to xml--><g id="link_dfmxml_xml"><path d="M531.96,368.1694 C537.77,388.2294 546,416.6794 551.85,436.9094 " fill="none" id="dfmxml-to-xml" style="stroke:#181818;stroke-width:1.0;"/><polygon fill="#181818" points="553.29,441.8694,554.6368,432.113,551.9032,437.0656,546.9507,434.3319,553.29,441.8694" style="stroke:#181818;stroke-width:1.0;"/></g><!--MD5=[14a8af5d19c87902ced0e9b235be66e7]
reverse link dfmxml to xslt--><g id="link_dfmxml_xslt"><path d="M570.83,343.1094 C580.59,343.1094 590.34,343.1094 600.09,343.1094 " fill="none" id="dfmxml-backto-xslt" style="stroke:#181818;stroke-width:1.0;"/><polygon fill="#181818" points="565.73,343.1094,574.73,347.1094,570.73,343.1094,574.73,339.1094,565.73,343.1094" style="stroke:#181818;stroke-width:1.0;"/></g><!--MD5=[58c2e4c9dd827b90b9233e1ef3794e16]
link xml to validation--><g id="link_xml_validation"><path d="M565.75,483.5694 C570.98,499.0294 578.3,520.6794 584.18,538.0594 " fill="none" id="xml-to-validation" style="stroke:#181818;stroke-width:1.0;"/><polygon fill="#181818" points="585.79,542.8394,586.7033,533.033,584.1917,538.1017,579.123,535.5902,585.79,542.8394" style="stroke:#181818;stroke-width:1.0;"/></g><!--MD5=[644362b0f6cc404d263d3f144db94d69]
reverse link validation to xsd--><g id="link_validation_xsd"><path d="M551.62,568.1094 C541.84,568.1094 532.06,568.1094 522.28,568.1094 " fill="none" id="validation-backto-xsd" style="stroke:#181818;stroke-width:1.0;"/><polygon fill="#181818" points="556.74,568.1094,547.74,564.1094,551.74,568.1094,547.74,572.1094,556.74,568.1094" style="stroke:#181818;stroke-width:1.0;"/></g><!--MD5=[39af85084362d241c2fe17718e95a1e8]
link validation to mail--><g id="link_validation_mail"><path d="M571.18,593.1194 C562.11,601.6094 551.18,610.6394 540,617.1094 C513.58,632.3794 481.71,643.7394 454.41,651.6594 " fill="none" id="validation-to-mail" style="stroke:#181818;stroke-width:1.0;"/><polygon fill="#181818" points="449.37,653.0994,459.1215,654.4806,454.1787,651.7295,456.9298,646.7867,449.37,653.0994" style="stroke:#181818;stroke-width:1.0;"/></g><!--MD5=[c8b759bab73865fe0568cb50f5a464be]
reverse link tsprog to mail--><g id="link_tsprog_mail"><path d="M118.53,386.0394 C170.53,439.7694 263.65,535.7094 344,617.1094 C356,629.2694 369.76,643.0094 379.64,652.8494 " fill="none" id="tsprog-backto-mail" style="stroke:#181818;stroke-width:1.0;"/><polygon fill="#181818" points="114.85,382.2394,118.2178,391.4945,118.3207,385.8386,123.9766,385.9414,114.85,382.2394" style="stroke:#181818;stroke-width:1.0;"/></g><!--MD5=[54897756f7d642d3db50b8197a95c5fb]
@startuml xsd

title Валидация модулей ТС

actor "Разработчик системы" as tsprog
actor "Разработчик плагина сборки" as gradleprog
collections "Коммит в систему" as commit
queue "Оповещение о результатах сборки" as mail


cloud "GitLab CI" as ci {
    control "Трансляция" as dfmxml
    control "Валидация" as validation
    file "Файл конверсии XSLT" as xslt
    file "Файл валидации XSD" as xsd
    card "Файл DFM" as dfm
    artifact "Файл XML" as xml
}

tsprog -> commit
tsprog ..> xsd
gradleprog ..down..> xslt
commit -> dfm
dfm -right-> dfmxml
dfmxml -down-> xml
xslt -left-> dfmxml
xml -down-> validation
xsd -left-> validation
validation -down-> mail
mail -left-> tsprog

@enduml

PlantUML version 1.2022.7(Mon Aug 22 20:01:30 MSK 2022)
(GPL source distribution)
Java Runtime: OpenJDK Runtime Environment
JVM: OpenJDK 64-Bit Server VM
Default Encoding: Cp1251
Language: ru
Country: RU
--></g></svg>