<?xml version="1.0" encoding="UTF-8" standalone="no"?><svg xmlns="http://www.w3.org/2000/svg" xmlns:xlink="http://www.w3.org/1999/xlink" contentStyleType="text/css" height="687px" preserveAspectRatio="none" style="width:732px;height:687px;background:#FFFFFF;" version="1.1" viewBox="0 0 732 687" width="732px" zoomAndPan="magnify"><defs/><g><rect height="27.6094" style="stroke:#00000000;stroke-width:1.0;fill:none;" width="178" x="270.4423" y="5"/><text fill="#000000" font-family="sans-serif" font-size="14" font-weight="bold" lengthAdjust="spacing" textLength="168" x="275.4423" y="24.5332">Валидация модулей ТС</text><!--MD5=[f94a88e1ea09208aa92c607904552d3d]
cluster ci--><g id="cluster_ci"><path d="M290.615,292.3911 C295.7282,278.5374 307.2201,279.5519 315.4992,289.0119 C326.8065,275.864 336.6867,275.5282 345.1691,291.8554 C350.3886,273.7591 364.7007,273.0227 375.8848,285.9499 C384.5079,270.4562 394.1823,270.0141 404.1106,284.7304 C413.6547,271.2482 423.7044,268.3177 434.1917,283.7492 C444.0504,269.0199 452.7739,272.0058 461.9737,284.4236 C471.152,267.1803 483.2569,270.021 493.8859,282.8861 C500.2449,267.2193 515.0298,268.1474 523.8058,280.2854 C533.22,265.6614 547.3373,267.4264 552.9816,283.8303 C560.8574,270.2431 573.099,272.103 578.7173,285.9482 C590.2507,274.4244 601.3534,273.4193 609.7905,289.4411 C616.3984,272.4996 630.4856,272.0776 640.0008,286.6544 C650.7607,273.6248 662.4701,276.1258 667.1596,292.2997 C678.9328,275.6666 694.1024,279.4383 701,297.1094 C701.7992,296.4306 702.4813,296.735 702.7213,297.6963 C716.623,305.2701 719.5811,318.4475 704.6904,327.8986 C717.6394,335.7219 719.2784,349.3709 704.0187,356.5324 C719.3274,367.3664 718.1359,379.7966 703.0279,389.7226 C718.6515,396.5029 721.735,409.0562 707.955,420.5378 C722.3495,427.5602 723.0249,441.8405 709.0626,449.9314 C723.2128,457.4475 722.574,468.3403 709.0276,475.819 C725.8846,488.3515 721.0926,501.0734 705.6087,510.4094 C719.1849,518.2277 716.3929,530.6397 704.2629,537.165 C718.062,545.0289 720.5175,558.2577 705.7171,567.4929 C719.622,583.0772 713.6432,597.2183 694,601.1094 C694.7203,601.0507 695.2737,601.4587 694.8882,602.2563 C688.9328,618.1223 679.5548,620.4735 668.0548,607.397 C659.3217,621.6875 648.5862,624.3443 638.4574,608.7807 C629.9258,622.8767 620.7013,620.9296 611.8026,609.1591 C601.3104,625.399 590.1088,627.4968 577.9784,610.8437 C571.2399,626.3515 560.8673,626.6625 551.0112,613.8079 C543.9113,626.5711 532.7622,626.5824 524.3952,615.205 C518.0184,632.0777 504.4121,633.2592 494.4206,618.6462 C485.3945,634.9072 470.2015,631.7522 463.6965,616.2107 C451.0388,631.2169 440.4083,626.8372 432.4117,611.418 C424.9622,622.7219 415.2291,626.1127 405.8886,613.5165 C396.0781,626.9726 383.1316,623.9215 378.841,608.3697 C366.3412,622.6669 353.596,623.37 344.4285,604.8729 C336.4221,617.3644 323.8459,620.3622 315.5917,605.1306 C298.4478,617.2202 286.9053,612.693 279,594.1094 C281.9407,592.9851 283.7969,594.9492 282.9546,597.8376 C266.7797,590.4367 265.4719,580.6385 278.5811,568.8235 C267.2773,557.792 265.4915,547.6596 281.9648,539.8748 C266.2381,531.4585 264.3579,519.6417 278.1506,507.7233 C261.9028,500.8363 264.855,486.874 276.6736,478.5653 C262.7449,468.2384 263.4945,453.0386 280.1844,446.014 C265.4075,439.7827 267.8222,428.9629 277.7278,420.3674 C262.0326,411.481 266.2043,397.3794 279.3278,390.012 C265.308,381.0262 264.5471,369.4418 278.8272,359.9841 C265.1999,347.5092 264.2552,336.6104 282.8067,328.1592 C265.3755,315.3202 265.0216,299.7249 286,290.1094 C288.7067,288.4123 290.341,289.1678 290.615,292.3911 " style="stroke:#181818;stroke-width:1.0;fill:none;"/><text fill="#000000" font-family="sans-serif" font-size="14" font-weight="bold" lengthAdjust="spacing" textLength="63" x="458.5" y="309.6426">GitLab CI</text></g><!--MD5=[ea4dc0d5e1431e2e43a8c15a38542bdc]
entity dfmxml--><g id="elem_dfmxml"><ellipse cx="452" cy="334.1094" fill="#F1F1F1" rx="12" ry="12" style="stroke:#181818;stroke-width:0.5;"/><polygon fill="#181818" points="448,322.1094,454,317.1094,452,322.1094,454,327.1094,448,322.1094" style="stroke:#181818;stroke-width:1.0;"/><text fill="#000000" font-family="sans-serif" font-size="14" lengthAdjust="spacing" textLength="81" x="411.5" y="364.6426">Трансляция</text></g><!--MD5=[6bce54b2baba0fa8b44af4150ea5b26e]
entity validation--><g id="elem_validation"><ellipse cx="521" cy="559.1094" fill="#F1F1F1" rx="12" ry="12" style="stroke:#181818;stroke-width:0.5;"/><polygon fill="#181818" points="517,547.1094,523,542.1094,521,547.1094,523,552.1094,517,547.1094" style="stroke:#181818;stroke-width:1.0;"/><text fill="#000000" font-family="sans-serif" font-size="14" lengthAdjust="spacing" textLength="74" x="484" y="589.6426">Валидация</text></g><!--MD5=[760541b746d4b82d55ac7afacf45db14]
entity xslt--><g id="elem_xslt"><path d="M527.5,326.6094 L527.5,359.2188 A2.5,2.5 0 0 0 530,361.7188 L690,361.7188 A2.5,2.5 0 0 0 692.5,359.2188 L692.5,334.1094 L682.5,324.1094 L530,324.1094 A2.5,2.5 0 0 0 527.5,326.6094 " fill="#F1F1F1" style="stroke:#181818;stroke-width:0.5;"/><path d="M682.5,324.1094 L682.5,331.6094 A2.5,2.5 0 0 0 685,334.1094 L692.5,334.1094 " fill="#F1F1F1" style="stroke:#181818;stroke-width:0.5;"/><text fill="#000000" font-family="sans-serif" font-size="14" lengthAdjust="spacing" textLength="145" x="537.5" y="348.6426">Файл конверсии XSLT</text></g><!--MD5=[f7a1fb8d7dc40e3a02c0b3f29d6abae3]
entity xsd--><g id="elem_xsd"><path d="M287,551.6094 L287,584.2188 A2.5,2.5 0 0 0 289.5,586.7188 L446.5,586.7188 A2.5,2.5 0 0 0 449,584.2188 L449,559.1094 L439,549.1094 L289.5,549.1094 A2.5,2.5 0 0 0 287,551.6094 " fill="#F1F1F1" style="stroke:#181818;stroke-width:0.5;"/><path d="M439,549.1094 L439,556.6094 A2.5,2.5 0 0 0 441.5,559.1094 L449,559.1094 " fill="#F1F1F1" style="stroke:#181818;stroke-width:0.5;"/><text fill="#000000" font-family="sans-serif" font-size="14" lengthAdjust="spacing" textLength="142" x="297" y="573.6426">Файл валидации XSD</text></g><!--MD5=[c5493808d7af5d7019ee34710d57aef1]
entity dfm--><g id="elem_dfm"><rect fill="#F1F1F1" height="23.6094" rx="2.5" ry="2.5" style="stroke:#181818;stroke-width:0.5;" width="89" x="287.5" y="331.1094"/><text fill="#000000" font-family="sans-serif" font-size="14" lengthAdjust="spacing" textLength="69" x="297.5" y="348.6426">Файл DFM</text></g><!--MD5=[69faa7ec202dfabe15aa1561f53126bf]
entity xml--><g id="elem_xml"><rect fill="#F1F1F1" height="40.6094" rx="2.5" ry="2.5" style="stroke:#181818;stroke-width:0.5;" width="96" x="438" y="442.1094"/><polygon fill="#F1F1F1" points="517,447.1094,517,461.1094,529,461.1094,529,453.1094,523,447.1094,517,447.1094" style="stroke:#181818;stroke-width:0.5;"/><line style="stroke:#181818;stroke-width:0.5;" x1="523" x2="523" y1="447.1094" y2="453.1094"/><line style="stroke:#181818;stroke-width:0.5;" x1="529" x2="523" y1="453.1094" y2="453.1094"/><text fill="#000000" font-family="sans-serif" font-size="14" lengthAdjust="spacing" textLength="66" x="448" y="469.6426">Файл XML</text></g><!--MD5=[9507427243004660732f4a3ad2a314fc]
entity tsprog--><g id="elem_tsprog"><ellipse cx="59" cy="312.6094" fill="#F1F1F1" rx="8" ry="8" style="stroke:#181818;stroke-width:0.5;"/><path d="M59,320.6094 L59,347.6094 M46,328.6094 L72,328.6094 M59,347.6094 L46,362.6094 M59,347.6094 L72,362.6094 " fill="none" style="stroke:#181818;stroke-width:0.5;"/><text fill="#000000" font-family="sans-serif" font-size="14" lengthAdjust="spacing" textLength="106" x="6" y="378.6426">Разработчик ТС</text></g><!--MD5=[7b31999533123f0eb6ad393854868593]
entity gradleprog--><g id="elem_gradleprog"><ellipse cx="610" cy="52.6094" fill="#F1F1F1" rx="8" ry="8" style="stroke:#181818;stroke-width:0.5;"/><path d="M610,60.6094 L610,87.6094 M597,68.6094 L623,68.6094 M610,87.6094 L597,102.6094 M610,87.6094 L623,102.6094 " fill="none" style="stroke:#181818;stroke-width:0.5;"/><text fill="#000000" font-family="sans-serif" font-size="14" lengthAdjust="spacing" textLength="153" x="533.5" y="118.6426">Разработчик Gradlebcb</text></g><!--MD5=[384f80ccc722d85addd66067e6ef3104]
entity commit--><g id="elem_commit"><rect fill="#F1F1F1" height="33.6094" rx="2.5" ry="2.5" style="stroke:#181818;stroke-width:0.5;" width="101" x="151.5" y="328.1094"/><rect fill="#F1F1F1" height="33.6094" rx="2.5" ry="2.5" style="stroke:#181818;stroke-width:0.5;" width="101" x="147.5" y="324.1094"/><text fill="#000000" font-family="sans-serif" font-size="14" lengthAdjust="spacing" textLength="85" x="155.5" y="346.6426">Коммит в ТС</text></g><!--MD5=[d214511de4cf5d41d91ac0d6a862c909]
entity mail--><g id="elem_mail"><path d="M212.5,653.1094 L453.5,653.1094 C458.5,653.1094 458.5,666.9141 458.5,666.9141 C458.5,666.9141 458.5,680.7188 453.5,680.7188 L212.5,680.7188 C207.5,680.7188 207.5,666.9141 207.5,666.9141 C207.5,666.9141 207.5,653.1094 212.5,653.1094 " fill="#F1F1F1" style="stroke:#181818;stroke-width:0.5;"/><path d="M453.5,653.1094 C448.5,653.1094 448.5,666.9141 448.5,666.9141 C448.5,680.7188 453.5,680.7188 453.5,680.7188 " fill="none" style="stroke:#181818;stroke-width:0.5;"/><text fill="#000000" font-family="sans-serif" font-size="14" lengthAdjust="spacing" textLength="231" x="212.5" y="672.6426">Оповещение о результатах сборки</text></g><!--MD5=[a676a9789d60baa8bbe0ae21878b8afe]
link tsprog to commit--><g id="link_tsprog_commit"><path d="M112.15,343.1094 C122.18,343.1094 132.22,343.1094 142.25,343.1094 " fill="none" id="tsprog-to-commit" style="stroke:#181818;stroke-width:1.0;"/><polygon fill="#181818" points="147.5,343.1094,138.5,339.1094,142.5,343.1094,138.5,347.1094,147.5,343.1094" style="stroke:#181818;stroke-width:1.0;"/></g><!--MD5=[6f17182f13c75fc67111f09462eac755]
link tsprog to xsd--><g id="link_tsprog_xsd"><path d="M111.77,382.1894 C177.15,429.3794 286.3,508.1494 338.48,545.7994 " fill="none" id="tsprog-to-xsd" style="stroke:#181818;stroke-width:1.0;stroke-dasharray:7.0,7.0;"/><polygon fill="#181818" points="342.74,548.8794,337.7837,540.3685,338.6859,545.953,333.1014,546.8552,342.74,548.8794" style="stroke:#181818;stroke-width:1.0;"/></g><!--MD5=[c353e95e4fdfc0e8bb0da3f4cdabb396]
link gradleprog to xslt--><g id="link_gradleprog_xslt"><path d="M610,122.1794 C610,176.3294 610,273.9594 610,318.6394 " fill="none" id="gradleprog-to-xslt" style="stroke:#181818;stroke-width:1.0;stroke-dasharray:7.0,7.0;"/><polygon fill="#181818" points="610,323.8194,614,314.8194,610,318.8194,606,314.8194,610,323.8194" style="stroke:#181818;stroke-width:1.0;"/></g><!--MD5=[48334b3f79a5e9fb495abf8495e5e4c8]
link commit to dfm--><g id="link_commit_dfm"><path d="M252.59,343.1094 C262.45,343.1094 272.32,343.1094 282.18,343.1094 " fill="none" id="commit-to-dfm" style="stroke:#181818;stroke-width:1.0;"/><polygon fill="#181818" points="287.33,343.1094,278.33,339.1094,282.33,343.1094,278.33,347.1094,287.33,343.1094" style="stroke:#181818;stroke-width:1.0;"/></g><!--MD5=[8fce0e2a92080f13f4b7891c9c392069]
link dfm to dfmxml--><g id="link_dfm_dfmxml"><path d="M376.53,343.1094 C386.41,343.1094 396.28,343.1094 406.15,343.1094 " fill="none" id="dfm-to-dfmxml" style="stroke:#181818;stroke-width:1.0;"/><polygon fill="#181818" points="411.32,343.1094,402.32,339.1094,406.32,343.1094,402.32,347.1094,411.32,343.1094" style="stroke:#181818;stroke-width:1.0;"/></g><!--MD5=[d70f5ea10bf5044de2a66b1b6858dc64]
link dfmxml to xml--><g id="link_dfmxml_xml"><path d="M458.96,368.1694 C464.77,388.2294 473,416.6794 478.85,436.9094 " fill="none" id="dfmxml-to-xml" style="stroke:#181818;stroke-width:1.0;"/><polygon fill="#181818" points="480.29,441.8694,481.6368,432.113,478.9032,437.0656,473.9507,434.3319,480.29,441.8694" style="stroke:#181818;stroke-width:1.0;"/></g><!--MD5=[14a8af5d19c87902ced0e9b235be66e7]
reverse link dfmxml to xslt--><g id="link_dfmxml_xslt"><path d="M497.83,343.1094 C507.59,343.1094 517.34,343.1094 527.09,343.1094 " fill="none" id="dfmxml-backto-xslt" style="stroke:#181818;stroke-width:1.0;"/><polygon fill="#181818" points="492.73,343.1094,501.73,347.1094,497.73,343.1094,501.73,339.1094,492.73,343.1094" style="stroke:#181818;stroke-width:1.0;"/></g><!--MD5=[58c2e4c9dd827b90b9233e1ef3794e16]
link xml to validation--><g id="link_xml_validation"><path d="M492.75,483.5694 C497.98,499.0294 505.3,520.6794 511.18,538.0594 " fill="none" id="xml-to-validation" style="stroke:#181818;stroke-width:1.0;"/><polygon fill="#181818" points="512.79,542.8394,513.7033,533.033,511.1917,538.1017,506.123,535.5902,512.79,542.8394" style="stroke:#181818;stroke-width:1.0;"/></g><!--MD5=[644362b0f6cc404d263d3f144db94d69]
reverse link validation to xsd--><g id="link_validation_xsd"><path d="M478.62,568.1094 C468.84,568.1094 459.06,568.1094 449.28,568.1094 " fill="none" id="validation-backto-xsd" style="stroke:#181818;stroke-width:1.0;"/><polygon fill="#181818" points="483.74,568.1094,474.74,564.1094,478.74,568.1094,474.74,572.1094,483.74,568.1094" style="stroke:#181818;stroke-width:1.0;"/></g><!--MD5=[39af85084362d241c2fe17718e95a1e8]
link validation to mail--><g id="link_validation_mail"><path d="M497.81,593.1994 C488.79,601.5894 477.98,610.5494 467,617.1094 C442.28,631.8794 412.38,643.3394 387.1,651.4494 " fill="none" id="validation-to-mail" style="stroke:#181818;stroke-width:1.0;"/><polygon fill="#181818" points="382.11,653.0294,391.8953,654.1461,386.8799,651.5299,389.4961,646.5144,382.11,653.0294" style="stroke:#181818;stroke-width:1.0;"/></g><!--MD5=[c8b759bab73865fe0568cb50f5a464be]
reverse link tsprog to mail--><g id="link_tsprog_mail"><path d="M87.07,386.4694 C125.19,442.4094 197.09,542.5594 271,617.1094 C284.33,630.5494 301.31,643.7394 314.12,653.0394 " fill="none" id="tsprog-backto-mail" style="stroke:#181818;stroke-width:1.0;"/><polygon fill="#181818" points="84.16,382.1794,85.9011,391.8731,86.9665,386.3175,92.5221,387.3828,84.16,382.1794" style="stroke:#181818;stroke-width:1.0;"/></g><!--MD5=[f2b2c16aa1d68411da409883a7db5f78]
@startuml xsd

title Валидация модулей ТС

actor "Разработчик ТС" as tsprog
actor "Разработчик Gradlebcb" as gradleprog
collections "Коммит в ТС" as commit
queue "Оповещение о результатах сборки" as mail


cloud "GitLab CI" as ci {
    control "Трансляция" as dfmxml
    control "Валидация" as validation
    file "Файл конверсии XSLT" as xslt
    file "Файл валидации XSD" as xsd
    card "Файл DFM" as dfm
    artifact "Файл XML" as xml
}

tsprog -> commit
tsprog ..> xsd
gradleprog ..down..> xslt
commit -> dfm
dfm -right-> dfmxml
dfmxml -down-> xml
xslt -left-> dfmxml
xml -down-> validation
xsd -left-> validation
validation -down-> mail
mail -left-> tsprog

@enduml

PlantUML version 1.2022.5(Sat Apr 30 13:55:52 MSK 2022)
(GPL source distribution)
Java Runtime: Java(TM) SE Runtime Environment
JVM: Java HotSpot(TM) 64-Bit Server VM
Default Encoding: Cp1251
Language: ru
Country: RU
--></g></svg>