<svg xmlns="http://www.w3.org/2000/svg" xmlns:xlink="http://www.w3.org/1999/xlink" contentStyleType="text/css" height="930px" preserveAspectRatio="none" style="width:1051px;height:930px;background:#FFFFFF;" version="1.1" viewBox="0 0 1051 930" width="1051px" zoomAndPan="magnify"><title>&#1044;&#1080;&#1072;&#1075;&#1088;&#1072;&#1084;&#1084;&#1072; &#1089;&#1086;&#1089;&#1090;&#1086;&#1103;&#1085;&#1080;&#1081; &#1088;&#1077;&#1076;&#1072;&#1082;&#1090;&#1086;&#1088;&#1072; Vim</title><defs/><g><text fill="#000000" font-family="sans-serif" font-size="14" font-weight="bold" lengthAdjust="spacing" textLength="259.5127" x="388.9395" y="24.5332">&#1044;&#1080;&#1072;&#1075;&#1088;&#1072;&#1084;&#1084;&#1072; &#1089;&#1086;&#1089;&#1090;&#1086;&#1103;&#1085;&#1080;&#1081; &#1088;&#1077;&#1076;&#1072;&#1082;&#1090;&#1086;&#1088;&#1072; Vim</text><path d="M323,259.1094 L546.4009,259.1094 A12.5,12.5 0 0 1 558.9009,271.6094 L558.9009,286.7188 L310.5,286.7188 L310.5,271.6094 A12.5,12.5 0 0 1 323,259.1094 " fill="#F1F1F1" style="stroke:#F1F1F1;stroke-width:1.0;"/><rect fill="none" height="431.6094" rx="12.5" ry="12.5" style="stroke:#181818;stroke-width:0.5;" width="248.4009" x="310.5" y="259.1094"/><line style="stroke:#181818;stroke-width:0.5;" x1="310.5" x2="558.9009" y1="286.7188" y2="286.7188"/><text fill="#000000" font-family="sans-serif" font-size="14" lengthAdjust="spacing" textLength="164.0557" x="352.6726" y="278.6426">&#1054;&#1090;&#1085;&#1086;&#1089;&#1080;&#1090;&#1077;&#1083;&#1100;&#1085;&#1099;&#1077; &#1082;&#1086;&#1084;&#1072;&#1085;&#1076;&#1099;</text><g id="rel.rel_cmd"><rect fill="#F1F1F1" height="52.7031" rx="12.5" ry="12.5" style="stroke:#181818;stroke-width:0.5;" width="100.4902" x="322.5" y="371.7188"/><line style="stroke:#181818;stroke-width:0.5;" x1="322.5" x2="422.9902" y1="399.3281" y2="399.3281"/><text fill="#000000" font-family="sans-serif" font-size="14" lengthAdjust="spacing" textLength="57.0391" x="344.2256" y="391.252">&#1050;&#1086;&#1084;&#1072;&#1085;&#1076;&#1072;</text><text fill="#000000" font-family="sans-serif" font-size="12" lengthAdjust="spacing" textLength="80.4902" x="327.5" y="416.7852">&#1042;&#1074;&#1086;&#1076; &#1082;&#1086;&#1084;&#1072;&#1085;&#1076;&#1099;</text></g><g id="rel.rel_mod"><rect fill="#F1F1F1" height="52.7031" rx="12.5" ry="12.5" style="stroke:#181818;stroke-width:0.5;" width="110.6719" x="393" y="478.7188"/><line style="stroke:#181818;stroke-width:0.5;" x1="393" x2="503.6719" y1="506.3281" y2="506.3281"/><text fill="#000000" font-family="sans-serif" font-size="14" lengthAdjust="spacing" textLength="90.6719" x="403" y="498.252">&#1052;&#1086;&#1076;&#1080;&#1092;&#1080;&#1082;&#1072;&#1090;&#1086;&#1088;</text><text fill="#000000" font-family="sans-serif" font-size="12" lengthAdjust="spacing" textLength="69.2813" x="398" y="523.7852">&#1042;&#1074;&#1086;&#1076; &#1086;&#1093;&#1074;&#1072;&#1090;&#1072;</text></g><g id="rel.rel_nav"><rect fill="#F1F1F1" height="52.7031" rx="12.5" ry="12.5" style="stroke:#181818;stroke-width:0.5;" width="85.2285" x="406" y="568.7188"/><line style="stroke:#181818;stroke-width:0.5;" x1="406" x2="491.2285" y1="596.3281" y2="596.3281"/><text fill="#000000" font-family="sans-serif" font-size="14" lengthAdjust="spacing" textLength="65.2285" x="416" y="588.252">&#1044;&#1074;&#1080;&#1078;&#1077;&#1085;&#1080;&#1077;</text><text fill="#000000" font-family="sans-serif" font-size="12" lengthAdjust="spacing" textLength="58.7402" x="411" y="613.7852">&#1042;&#1074;&#1086;&#1076; &#1096;&#1072;&#1075;&#1072;</text></g><ellipse cx="458.5" cy="307.7188" fill="#222222" rx="10" ry="10" style="stroke:#222222;stroke-width:1.0;"/><ellipse cx="448.5" cy="669.7188" fill="none" rx="11" ry="11" style="stroke:#222222;stroke-width:1.0;"/><ellipse cx="448.5" cy="669.7188" fill="#222222" rx="6" ry="6" style="stroke:#222222;stroke-width:1.0;"/><!--link *start*rel to rel_cmd--><g id="link_*start*rel_rel_cmd"><path d="M448.64,309.8988 C433.87,312.1888 406.07,318.6288 390.5,335.7188 C381.59,345.5088 378.1757,353.5815 375.8957,365.7415 " fill="none" id="*start*rel-to-rel_cmd" style="stroke:#181818;stroke-width:1.0;"/><polygon fill="#181818" points="374.79,371.6388,380.3801,363.5301,375.7114,366.7244,372.5171,362.0557,374.79,371.6388" style="stroke:#181818;stroke-width:1.0;"/><text fill="#000000" font-family="sans-serif" font-size="13" lengthAdjust="spacing" textLength="52.9648" x="391.5" y="350.2139">&#1050;&#1086;&#1084;&#1072;&#1085;&#1076;&#1072;</text></g><!--link *start*rel to rel_mod--><g id="link_*start*rel_rel_mod"><path d="M458.03,317.8888 C456.57,346.4188 452.3759,428.3966 450.1259,472.4766 " fill="none" id="*start*rel-to-rel_mod" style="stroke:#181818;stroke-width:1.0;"/><polygon fill="#181818" points="449.82,478.4688,454.2736,469.6844,450.0749,473.4753,446.284,469.2765,449.82,478.4688" style="stroke:#181818;stroke-width:1.0;"/><text fill="#000000" font-family="sans-serif" font-size="13" lengthAdjust="spacing" textLength="36.7021" x="455.5" y="403.7139">&#1054;&#1093;&#1074;&#1072;&#1090;</text></g><!--link *start*rel to rel_nav--><g id="link_*start*rel_rel_nav"><path d="M464.19,315.9988 C472.68,327.2488 488.53,349.8788 496.5,371.7188 C521.03,438.8887 541.51,465.9188 513.5,531.7188 C507.43,545.9788 500.8149,554.5731 489.4949,564.6331 " fill="none" id="*start*rel-to-rel_nav" style="stroke:#181818;stroke-width:1.0;"/><polygon fill="#181818" points="485.01,568.6188,494.3945,565.6301,488.7474,565.2973,489.0802,559.6503,485.01,568.6188" style="stroke:#181818;stroke-width:1.0;"/><text fill="#000000" font-family="sans-serif" font-size="13" lengthAdjust="spacing" textLength="22.4009" x="526.5" y="457.2139">&#1096;&#1072;&#1075;</text></g><!--link rel_cmd to rel_mod--><g id="link_rel_cmd_rel_mod"><path d="M391.09,424.9088 C402.87,441.1788 414.5322,457.2882 426.3222,473.5782 " fill="none" id="rel_cmd-to-rel_mod" style="stroke:#181818;stroke-width:1.0;"/><polygon fill="#181818" points="429.84,478.4388,427.8036,468.8027,426.9085,474.3883,421.3229,473.4932,429.84,478.4388" style="stroke:#181818;stroke-width:1.0;"/></g><!--link rel_mod to rel_nav--><g id="link_rel_mod_rel_nav"><path d="M448.5,532.1488 C448.5,543.5988 448.5,551.0387 448.5,562.4788 " fill="none" id="rel_mod-to-rel_nav" style="stroke:#181818;stroke-width:1.0;"/><polygon fill="#181818" points="448.5,568.4788,452.5,559.4788,448.5,563.4788,444.5,559.4788,448.5,568.4788" style="stroke:#181818;stroke-width:1.0;"/></g><!--link rel_cmd to rel_nav--><g id="link_rel_cmd_rel_nav"><path d="M369.46,424.7587 C367.3,452.4988 367.19,497.4288 383.5,531.7188 C390.22,545.8588 397.1286,554.4991 408.5186,564.6391 " fill="none" id="rel_cmd-to-rel_nav" style="stroke:#181818;stroke-width:1.0;"/><polygon fill="#181818" points="413,568.6288,408.9376,559.6567,409.2655,565.3041,403.6181,565.632,413,568.6288" style="stroke:#181818;stroke-width:1.0;"/></g><!--link rel_nav to *end*rel--><g id="link_rel_nav_*end*rel"><path d="M448.5,621.9788 C448.5,634.6788 448.5,643.2588 448.5,652.7088 " fill="none" id="rel_nav-to-*end*rel" style="stroke:#181818;stroke-width:1.0;"/><polygon fill="#181818" points="448.5,658.7088,452.5,649.7088,448.5,653.7088,444.5,649.7088,448.5,658.7088" style="stroke:#181818;stroke-width:1.0;"/></g><path d="M708.5,125.6094 L1008.1719,125.6094 A12.5,12.5 0 0 1 1020.6719,138.1094 L1020.6719,153.2188 L696,153.2188 L696,138.1094 A12.5,12.5 0 0 1 708.5,125.6094 " fill="#F1F1F1" style="stroke:#F1F1F1;stroke-width:1.0;"/><rect fill="none" height="698.6094" rx="12.5" ry="12.5" style="stroke:#181818;stroke-width:0.5;" width="324.6719" x="696" y="125.6094"/><line style="stroke:#181818;stroke-width:0.5;" x1="696" x2="1020.6719" y1="153.2188" y2="153.2188"/><text fill="#000000" font-family="sans-serif" font-size="14" lengthAdjust="spacing" textLength="143.9785" x="786.3467" y="145.1426">&#1040;&#1073;&#1089;&#1086;&#1083;&#1102;&#1090;&#1085;&#1099;&#1077; &#1082;&#1086;&#1084;&#1072;&#1085;&#1076;&#1099;</text><path d="M720.5,165.2188 L950.1719,165.2188 A12.5,12.5 0 0 1 962.6719,177.7188 L962.6719,192.8281 L708,192.8281 L708,177.7188 A12.5,12.5 0 0 1 720.5,165.2188 " fill="#F1F1F1" style="stroke:#F1F1F1;stroke-width:1.0;"/><rect fill="none" height="358.6094" rx="12.5" ry="12.5" style="stroke:#181818;stroke-width:0.5;" width="254.6719" x="708" y="165.2188"/><line style="stroke:#181818;stroke-width:0.5;" x1="708" x2="962.6719" y1="192.8281" y2="192.8281"/><text fill="#000000" font-family="sans-serif" font-size="14" lengthAdjust="spacing" textLength="121.7139" x="774.479" y="184.752">&#1050;&#1086;&#1084;&#1072;&#1085;&#1076;&#1072; &#1086;&#1073;&#1086;&#1083;&#1086;&#1095;&#1082;&#1080;</text><g id="abs.abs_shl.abs_shl_cmd"><rect fill="#F1F1F1" height="52.7031" rx="12.5" ry="12.5" style="stroke:#181818;stroke-width:0.5;" width="100.4902" x="724.5" y="277.8281"/><line style="stroke:#181818;stroke-width:0.5;" x1="724.5" x2="824.9902" y1="305.4375" y2="305.4375"/><text fill="#000000" font-family="sans-serif" font-size="14" lengthAdjust="spacing" textLength="57.0391" x="746.2256" y="297.3613">&#1050;&#1086;&#1084;&#1072;&#1085;&#1076;&#1072;</text><text fill="#000000" font-family="sans-serif" font-size="12" lengthAdjust="spacing" textLength="80.4902" x="729.5" y="322.8945">&#1042;&#1074;&#1086;&#1076; &#1082;&#1086;&#1084;&#1072;&#1085;&#1076;&#1099;</text></g><g id="abs.abs_shl.abs_shl_out"><rect fill="#F1F1F1" height="52.7031" rx="12.5" ry="12.5" style="stroke:#181818;stroke-width:0.5;" width="109.1152" x="720" y="384.8281"/><line style="stroke:#181818;stroke-width:0.5;" x1="720" x2="829.1152" y1="412.4375" y2="412.4375"/><text fill="#000000" font-family="sans-serif" font-size="14" lengthAdjust="spacing" textLength="42.793" x="753.1611" y="404.3613">&#1042;&#1099;&#1074;&#1086;&#1076;</text><text fill="#000000" font-family="sans-serif" font-size="12" lengthAdjust="spacing" textLength="89.1152" x="725" y="429.8945">&#1042;&#1099;&#1074;&#1086;&#1076; &#1082;&#1086;&#1084;&#1072;&#1085;&#1076;&#1099;</text></g><g id="abs.abs_shl.abs_shl_mod"><rect fill="#F1F1F1" height="52.7031" rx="12.5" ry="12.5" style="stroke:#181818;stroke-width:0.5;" width="110.6719" x="843" y="277.8281"/><line style="stroke:#181818;stroke-width:0.5;" x1="843" x2="953.6719" y1="305.4375" y2="305.4375"/><text fill="#000000" font-family="sans-serif" font-size="14" lengthAdjust="spacing" textLength="90.6719" x="853" y="297.3613">&#1052;&#1086;&#1076;&#1080;&#1092;&#1080;&#1082;&#1072;&#1090;&#1086;&#1088;</text><text fill="#000000" font-family="sans-serif" font-size="12" lengthAdjust="spacing" textLength="69.2813" x="848" y="322.8945">&#1042;&#1074;&#1086;&#1076; &#1086;&#1093;&#1074;&#1072;&#1090;&#1072;</text></g><g id="abs.abs_shl.abs_shl_mod_cmd"><rect fill="#F1F1F1" height="52.7031" rx="12.5" ry="12.5" style="stroke:#181818;stroke-width:0.5;" width="100.4902" x="847.5" y="384.8281"/><line style="stroke:#181818;stroke-width:0.5;" x1="847.5" x2="947.9902" y1="412.4375" y2="412.4375"/><text fill="#000000" font-family="sans-serif" font-size="14" lengthAdjust="spacing" textLength="57.0391" x="869.2256" y="404.3613">&#1050;&#1086;&#1084;&#1072;&#1085;&#1076;&#1072;</text><text fill="#000000" font-family="sans-serif" font-size="12" lengthAdjust="spacing" textLength="80.4902" x="852.5" y="429.8945">&#1042;&#1074;&#1086;&#1076; &#1082;&#1086;&#1084;&#1072;&#1085;&#1076;&#1099;</text></g><ellipse cx="835.5" cy="213.8281" fill="#222222" rx="10" ry="10" style="stroke:#222222;stroke-width:1.0;"/><ellipse cx="835.5" cy="502.8281" fill="none" rx="11" ry="11" style="stroke:#222222;stroke-width:1.0;"/><ellipse cx="835.5" cy="502.8281" fill="#222222" rx="6" ry="6" style="stroke:#222222;stroke-width:1.0;"/><!--link *start*abs_shl to abs_shl_mod--><g id="link_*start*abs_shl_abs_shl_mod"><path d="M843.03,220.6981 C849.28,225.8281 858.15,233.6981 864.5,241.8281 C873.06,252.7881 878.0047,260.8479 883.8847,272.3279 " fill="none" id="*start*abs_shl-to-abs_shl_mod" style="stroke:#181818;stroke-width:1.0;"/><polygon fill="#181818" points="886.62,277.6681,886.0773,267.8342,884.3406,273.2179,878.9569,271.4812,886.62,277.6681" style="stroke:#181818;stroke-width:1.0;"/><text fill="#000000" font-family="sans-serif" font-size="13" lengthAdjust="spacing" textLength="36.7021" x="876.5" y="256.3232">&#1054;&#1093;&#1074;&#1072;&#1090;</text></g><!--link *start*abs_shl to abs_shl_cmd--><g id="link_*start*abs_shl_abs_shl_cmd"><path d="M828.48,221.5681 C823.21,226.8181 815.98,234.4381 810.5,241.8281 C802.17,253.0581 797.1025,261.118 790.7725,272.468 " fill="none" id="*start*abs_shl-to-abs_shl_cmd" style="stroke:#181818;stroke-width:1.0;"/><polygon fill="#181818" points="787.85,277.7081,795.7271,271.7962,790.2854,273.3413,788.7403,267.8996,787.85,277.7081" style="stroke:#181818;stroke-width:1.0;"/><text fill="#000000" font-family="sans-serif" font-size="13" lengthAdjust="spacing" textLength="52.9648" x="811.5" y="256.3232">&#1050;&#1086;&#1084;&#1072;&#1085;&#1076;&#1072;</text></g><!--link abs_shl_mod to abs_shl_mod_cmd--><g id="link_abs_shl_mod_abs_shl_mod_cmd"><path d="M898.26,331.0181 C898.1,347.2881 897.9552,362.2584 897.8052,378.5484 " fill="none" id="abs_shl_mod-to-abs_shl_mod_cmd" style="stroke:#181818;stroke-width:1.0;"/><polygon fill="#181818" points="897.75,384.5481,901.8327,375.5853,897.796,379.5483,893.833,375.5117,897.75,384.5481" style="stroke:#181818;stroke-width:1.0;"/><text fill="#000000" font-family="sans-serif" font-size="13" lengthAdjust="spacing" textLength="52.9648" x="898.5" y="363.3232">&#1050;&#1086;&#1084;&#1072;&#1085;&#1076;&#1072;</text></g><!--link abs_shl_mod_cmd to *end*abs_shl--><g id="link_abs_shl_mod_cmd_*end*abs_shl"><path d="M879.57,438.2181 C866.69,456.7981 853.5583,475.7671 844.8583,488.3171 " fill="none" id="abs_shl_mod_cmd-to-*end*abs_shl" style="stroke:#181818;stroke-width:1.0;"/><polygon fill="#181818" points="841.44,493.2481,849.8548,488.1305,844.2886,489.1389,843.2801,483.5727,841.44,493.2481" style="stroke:#181818;stroke-width:1.0;"/><text fill="#000000" font-family="sans-serif" font-size="13" lengthAdjust="spacing" textLength="31.0718" x="867.5" y="470.3232">Enter</text></g><!--link abs_shl_cmd to abs_shl_out--><g id="link_abs_shl_cmd_abs_shl_out"><path d="M774.5,331.0181 C774.5,347.2881 774.5,362.2581 774.5,378.5481 " fill="none" id="abs_shl_cmd-to-abs_shl_out" style="stroke:#181818;stroke-width:1.0;"/><polygon fill="#181818" points="774.5,384.5481,778.5,375.5481,774.5,379.5481,770.5,375.5481,774.5,384.5481" style="stroke:#181818;stroke-width:1.0;"/><text fill="#000000" font-family="sans-serif" font-size="13" lengthAdjust="spacing" textLength="31.0718" x="775.5" y="363.3232">Enter</text></g><!--link abs_shl_out to *end*abs_shl--><g id="link_abs_shl_out_*end*abs_shl"><path d="M792.14,438.2181 C804.81,456.7981 817.7218,475.7395 826.2718,488.2895 " fill="none" id="abs_shl_out-to-*end*abs_shl" style="stroke:#181818;stroke-width:1.0;"/><polygon fill="#181818" points="829.65,493.2481,827.8885,483.5581,826.8348,489.1159,821.277,488.0623,829.65,493.2481" style="stroke:#181818;stroke-width:1.0;"/><text fill="#000000" font-family="sans-serif" font-size="13" lengthAdjust="spacing" textLength="31.0718" x="817.5" y="470.3232">Enter</text></g><g id="abs.abs_cmd"><rect fill="#F1F1F1" height="52.7031" rx="12.5" ry="12.5" style="stroke:#181818;stroke-width:0.5;" width="100.4902" x="787.5" y="685.2188"/><line style="stroke:#181818;stroke-width:0.5;" x1="787.5" x2="887.9902" y1="712.8281" y2="712.8281"/><text fill="#000000" font-family="sans-serif" font-size="14" lengthAdjust="spacing" textLength="57.0391" x="809.2256" y="704.752">&#1050;&#1086;&#1084;&#1072;&#1085;&#1076;&#1072;</text><text fill="#000000" font-family="sans-serif" font-size="12" lengthAdjust="spacing" textLength="80.4902" x="792.5" y="730.2852">&#1042;&#1074;&#1086;&#1076; &#1082;&#1086;&#1084;&#1072;&#1085;&#1076;&#1099;</text></g><g id="abs.abs_mod"><rect fill="#F1F1F1" height="52.7031" rx="12.5" ry="12.5" style="stroke:#181818;stroke-width:0.5;" width="110.6719" x="901" y="578.2188"/><line style="stroke:#181818;stroke-width:0.5;" x1="901" x2="1011.6719" y1="605.8281" y2="605.8281"/><text fill="#000000" font-family="sans-serif" font-size="14" lengthAdjust="spacing" textLength="90.6719" x="911" y="597.752">&#1052;&#1086;&#1076;&#1080;&#1092;&#1080;&#1082;&#1072;&#1090;&#1086;&#1088;</text><text fill="#000000" font-family="sans-serif" font-size="12" lengthAdjust="spacing" textLength="69.2813" x="906" y="623.2852">&#1042;&#1074;&#1086;&#1076; &#1086;&#1093;&#1074;&#1072;&#1090;&#1072;</text></g><g id="abs.abs_mod_cmd"><rect fill="#F1F1F1" height="52.7031" rx="12.5" ry="12.5" style="stroke:#181818;stroke-width:0.5;" width="100.4902" x="905.5" y="685.2188"/><line style="stroke:#181818;stroke-width:0.5;" x1="905.5" x2="1005.9902" y1="712.8281" y2="712.8281"/><text fill="#000000" font-family="sans-serif" font-size="14" lengthAdjust="spacing" textLength="57.0391" x="927.2256" y="704.752">&#1050;&#1086;&#1084;&#1072;&#1085;&#1076;&#1072;</text><text fill="#000000" font-family="sans-serif" font-size="12" lengthAdjust="spacing" textLength="80.4902" x="910.5" y="730.2852">&#1042;&#1074;&#1086;&#1076; &#1082;&#1086;&#1084;&#1072;&#1085;&#1076;&#1099;</text></g><ellipse cx="835.5" cy="604.7188" fill="#222222" rx="10" ry="10" style="stroke:#222222;stroke-width:1.0;"/><ellipse cx="896.5" cy="803.2188" fill="none" rx="11" ry="11" style="stroke:#222222;stroke-width:1.0;"/><ellipse cx="896.5" cy="803.2188" fill="#222222" rx="6" ry="6" style="stroke:#222222;stroke-width:1.0;"/><!--reverse link abs_shl to *start*abs--><g id="link_abs_shl_*start*abs"><path d="M835.5,530.5587 C835.5,561.2788 835.5,581.5488 835.5,594.7088 " fill="none" id="abs_shl-backto-*start*abs" style="stroke:#181818;stroke-width:1.0;"/><polygon fill="#181818" points="835.5,524.5587,831.5,533.5587,835.5,529.5587,839.5,533.5587,835.5,524.5587" style="stroke:#181818;stroke-width:1.0;"/><text fill="#000000" font-family="sans-serif" font-size="13" lengthAdjust="spacing" textLength="83.7446" x="836.5" y="556.7139">&#1042;&#1074;&#1086;&#1076; &#1079;&#1085;&#1072;&#1082;&#1072; "!"</text></g><!--link *start*abs to abs_cmd--><g id="link_*start*abs_abs_cmd"><path d="M835.68,615.0387 C835.97,630.5988 836.4662,656.3898 836.8962,679.0598 " fill="none" id="*start*abs-to-abs_cmd" style="stroke:#181818;stroke-width:1.0;"/><polygon fill="#181818" points="837.01,685.0588,840.8386,675.9845,836.9152,680.0596,832.84,676.1362,837.01,685.0588" style="stroke:#181818;stroke-width:1.0;"/><text fill="#000000" font-family="sans-serif" font-size="13" lengthAdjust="spacing" textLength="52.9648" x="838.5" y="663.7139">&#1050;&#1086;&#1084;&#1072;&#1085;&#1076;&#1072;</text></g><!--link *start*abs to abs_mod--><g id="link_*start*abs_abs_mod"><path d="M845.82,604.7188 C858.22,604.7188 873.99,604.7188 894.96,604.7188 " fill="none" id="*start*abs-to-abs_mod" style="stroke:#181818;stroke-width:1.0;"/><polygon fill="#181818" points="900.96,604.7188,891.96,600.7188,895.96,604.7188,891.96,608.7188,900.96,604.7188" style="stroke:#181818;stroke-width:1.0;"/><text fill="#000000" font-family="sans-serif" font-size="13" lengthAdjust="spacing" textLength="36.7021" x="855.25" y="598.2139">&#1054;&#1093;&#1074;&#1072;&#1090;</text></g><!--link abs_mod to abs_mod_cmd--><g id="link_abs_mod_abs_mod_cmd"><path d="M956.26,631.4088 C956.1,647.6788 955.9552,662.649 955.8052,678.939 " fill="none" id="abs_mod-to-abs_mod_cmd" style="stroke:#181818;stroke-width:1.0;"/><polygon fill="#181818" points="955.75,684.9388,959.8327,675.976,955.796,679.939,951.833,675.9023,955.75,684.9388" style="stroke:#181818;stroke-width:1.0;"/><text fill="#000000" font-family="sans-serif" font-size="13" lengthAdjust="spacing" textLength="52.9648" x="956.5" y="663.7139">&#1050;&#1086;&#1084;&#1072;&#1085;&#1076;&#1072;</text></g><!--link abs_mod_cmd to *end*abs--><g id="link_abs_mod_cmd_*end*abs"><path d="M938.43,738.6088 C926.18,757.1888 913.7342,776.0805 905.4542,788.6305 " fill="none" id="abs_mod_cmd-to-*end*abs" style="stroke:#181818;stroke-width:1.0;"/><polygon fill="#181818" points="902.15,793.6388,910.4451,788.3293,904.9035,789.4652,903.7675,783.9236,902.15,793.6388" style="stroke:#181818;stroke-width:1.0;"/><text fill="#000000" font-family="sans-serif" font-size="13" lengthAdjust="spacing" textLength="31.0718" x="927.5" y="770.7139">Enter</text></g><!--link abs_cmd to *end*abs--><g id="link_abs_cmd_*end*abs"><path d="M854.57,738.6088 C866.82,757.1888 879.2658,776.0805 887.5458,788.6305 " fill="none" id="abs_cmd-to-*end*abs" style="stroke:#181818;stroke-width:1.0;"/><polygon fill="#181818" points="890.85,793.6388,889.2325,783.9236,888.0965,789.4652,882.5549,788.3293,890.85,793.6388" style="stroke:#181818;stroke-width:1.0;"/><text fill="#000000" font-family="sans-serif" font-size="13" lengthAdjust="spacing" textLength="31.0718" x="878.5" y="770.7139">Enter</text></g><g id="txt"><rect fill="#F1F1F1" height="52.7031" rx="12.5" ry="12.5" style="stroke:#181818;stroke-width:0.5;" width="133.0156" x="7" y="448.6094"/><line style="stroke:#181818;stroke-width:0.5;" x1="7" x2="140.0156" y1="476.2188" y2="476.2188"/><text fill="#000000" font-family="sans-serif" font-size="14" lengthAdjust="spacing" textLength="78.1416" x="34.437" y="468.1426">&#1042;&#1074;&#1086;&#1076; &#1090;&#1077;&#1082;&#1089;&#1090;&#1072;</text><text fill="#000000" font-family="sans-serif" font-size="12" lengthAdjust="spacing" textLength="113.0156" x="12" y="493.6758">&#1056;&#1077;&#1078;&#1080;&#1084; &#1074;&#1074;&#1086;&#1076;&#1072; &#1090;&#1077;&#1082;&#1089;&#1090;&#1072;</text></g><ellipse cx="434.5" cy="54.6094" fill="#222222" rx="10" ry="10" style="stroke:#222222;stroke-width:1.0;"/><ellipse cx="858.5" cy="913.6094" fill="none" rx="11" ry="11" style="stroke:#222222;stroke-width:1.0;"/><ellipse cx="858.5" cy="913.6094" fill="#222222" rx="6" ry="6" style="stroke:#222222;stroke-width:1.0;"/><!--link *start* to rel--><g id="link_*start*_rel"><path d="M434.5,64.7394 C434.5,91.7494 434.5,168.6794 434.5,252.8994 " fill="none" id="*start*-to-rel" style="stroke:#181818;stroke-width:1.0;"/><polygon fill="#181818" points="434.5,258.8994,438.5,249.8994,434.5,253.8994,430.5,249.8994,434.5,258.8994" style="stroke:#181818;stroke-width:1.0;"/></g><!--link rel to abs--><g id="link_rel_abs"><path d="M558.56,475.1094 C601.45,475.1094 644.18,475.1094 689.71,475.1094 " fill="none" id="rel-to-abs" style="stroke:#181818;stroke-width:1.0;"/><polygon fill="#181818" points="695.71,475.1094,686.71,471.1094,690.71,475.1094,686.71,479.1094,695.71,475.1094" style="stroke:#181818;stroke-width:1.0;"/><text fill="#000000" font-family="sans-serif" font-size="13" lengthAdjust="spacing" textLength="83.7446" x="585.75" y="468.6045">&#1042;&#1074;&#1086;&#1076; &#1079;&#1085;&#1072;&#1082;&#1072; ":"</text></g><!--link abs to rel--><g id="link_abs_rel"><path d="M696,495.5894 C667.6,497.2494 638.33,497.7494 610.75,496.1094 C593.83,495.1094 582.0185,494.1733 564.5185,492.3733 " fill="none" id="abs-to-rel" style="stroke:#181818;stroke-width:1.0;"/><polygon fill="#181818" points="558.55,491.7594,567.0935,496.6592,563.5238,492.271,567.912,488.7012,558.55,491.7594" style="stroke:#181818;stroke-width:1.0;"/><text fill="#000000" font-family="sans-serif" font-size="13" lengthAdjust="spacing" textLength="31.0718" x="611.75" y="492.6045">Enter</text></g><!--reverse link txt to rel--><g id="link_txt_rel"><path d="M146.13,475.1094 C193.7,475.1094 253.11,475.1094 310.19,475.1094 " fill="none" id="txt-backto-rel" style="stroke:#181818;stroke-width:1.0;"/><polygon fill="#181818" points="140.13,475.1094,149.13,479.1094,145.13,475.1094,149.13,471.1094,140.13,475.1094" style="stroke:#181818;stroke-width:1.0;"/><text fill="#000000" font-family="sans-serif" font-size="13" lengthAdjust="spacing" textLength="134.6021" x="158.25" y="468.6045">&#1050;&#1086;&#1084;&#1072;&#1085;&#1076;&#1072; &#1074;&#1074;&#1086;&#1076;&#1072; &#1090;&#1077;&#1082;&#1089;&#1090;&#1072;</text></g><!--link txt to rel--><g id="link_txt_rel"><path d="M140.18,487.3494 C162.67,490.9294 187.97,494.3494 211.25,496.1094 C243.37,498.5394 272.0745,497.7506 304.3145,494.8306 " fill="none" id="txt-to-rel" style="stroke:#181818;stroke-width:1.0;"/><polygon fill="#181818" points="310.29,494.2894,300.9659,491.1175,305.3104,494.7404,301.6875,499.0849,310.29,494.2894" style="stroke:#181818;stroke-width:1.0;"/><text fill="#000000" font-family="sans-serif" font-size="13" lengthAdjust="spacing" textLength="26.73" x="212.25" y="492.6045">ESC</text></g><!--link abs to *end*--><g id="link_abs_*end*"><path d="M858.5,824.7994 C858.5,859.8594 858.5,881.8294 858.5,896.1494 " fill="none" id="abs-to-*end*" style="stroke:#181818;stroke-width:1.0;"/><polygon fill="#181818" points="858.5,902.1494,862.5,893.1494,858.5,897.1494,854.5,893.1494,858.5,902.1494" style="stroke:#181818;stroke-width:1.0;"/><text fill="#000000" font-family="sans-serif" font-size="13" lengthAdjust="spacing" textLength="183.8916" x="859.5" y="869.1045">&#1042;&#1074;&#1086;&#1076; &#1087;&#1086;&#1089;&#1083;&#1077;&#1076;&#1086;&#1074;&#1072;&#1090;&#1077;&#1083;&#1100;&#1085;&#1086;&#1089;&#1090;&#1080; ":q"</text></g><!--link rel to rel--><g id="link_rel_rel"><path d="M558.83,409.0394 C579.36,418.3894 593.5,440.4094 593.5,475.1094 C593.5,509.8094 584.8204,529.3426 564.2904,538.6926 " fill="none" id="rel-to-rel" style="stroke:#181818;stroke-width:1.0;"/><polygon fill="#181818" points="558.83,541.1794,568.6784,541.0894,563.3803,539.107,565.3627,533.8089,558.83,541.1794" style="stroke:#181818;stroke-width:1.0;"/></g><!--SRC=[hLNDIiD04BxlKwmv2hv03rx49n2yY4YrKGlzqJPLGGGLHK5H4KyYnKT8jQsnVxx2x1ivizbDTsEspS4KGjZvvfjlVheJb8EAp-458WZXKvpZUuI_a8iBc8WBSOdlHnYZ-PkZjGTTH0paCMBvUhdAM3Ce1Zxte8t7O_A22BzwC1JtC1PtqECmW0cnehahxZnURFA6N-6dZEEZtL-d60WrPckdMk853i_mWUPkYidoVoC0Xhv2iGC8Ouq9JxLkyqp4DNuIAhHONl0qWZxAfwHxYN-jU6JwYrkgb_BTMDpaIwNwSMrfsTHi9PG9LABQMaicA8uS1vG07IB5bDY8DKNWz3Dj54ZRK0GxIphx11sQ1-pe0_NOrTFYTdDMJx7eq24MBFuDkaVQQQkvhuTXza0eR8wXC7cUKQy4MXprLY0vj74UYtkyDEEy4SkN6xBapCySb9G6Uw9SOEUSqcCoPaJ9xMoD7AaeyDLQu3V-O4sStQHiFDbSl6UCpQ_sVrmjn9FtQibMaQ_VidsjWsbfBFmN8aDInhq5ZsMrU_QLr2ZlxGSAcJb1sc1IpXm24-1gajQLPP_UFScDIojb85TINBpWHFw1t_6uZtqPSGHAA6ql0ynOwaPbj7lY95nLB7YCh34-4INzAlukbKf5Jrrm3WK4Jegi6DTMuX1MybCnFtAH3kN6dQXnKYjLBUO8PHvwEXdAY_q2]--></g></svg>